<?xml version="1.0" encoding="utf-8"?>
<!-- Generator: Adobe Illustrator 24.0.1, SVG Export Plug-In . SVG Version: 6.00 Build 0)  -->
<svg version="1.1" id="Object" xmlns="http://www.w3.org/2000/svg" xmlns:xlink="http://www.w3.org/1999/xlink" x="0px" y="0px"
	 viewBox="0 0 2340 1560" style="enable-background:new 0 0 2340 1560;" xml:space="preserve">
<style type="text/css">
	.st0{fill:#CDD7FC;}
	.st1{fill:#DDE5F2;}
	.st2{fill:#FFFFFD;}
	.st3{fill:#071D4F;}
	.st4{fill:#5384FC;}
	.st5{fill:#09FAFA;}
	.st6{fill:#EA3981;}
	.st7{fill:#FF518F;}
	.st8{fill:#F0F5FD;}
	.st9{fill:#FFFFFF;}
	.st10{fill:#364D66;}
	.st11{fill:#2C405A;}
	.st12{clip-path:url(#SVGID_2_);}
	.st13{opacity:0.3;fill:#FFFFFF;}
	.st14{fill:none;}
	.st15{clip-path:url(#SVGID_4_);}
	.st16{fill:#A7A9FC;}
	.st17{fill:#B2C2ED;}
	.st18{fill:#384F5A;}
	.st19{fill:#002C3C;}
	.st20{clip-path:url(#SVGID_6_);}
	.st21{fill:#4076E2;}
	.st22{fill:#71A0FF;}
	.st23{fill:#E5F0FF;}
	.st24{fill:#F1F1F1;}
	.st25{fill:#3D63B7;}
	.st26{fill:#2D4DA7;}
	.st27{fill:#29B1BE;}
	.st28{fill:#40CCD3;}
	.st29{fill:#29A2BE;}
	.st30{fill:#FFC566;}
	.st31{fill:#FFAF66;}
	.st32{fill:#FFD666;}
	.st33{fill:#F7BD67;}
	.st34{fill:#F79D58;}
	.st35{fill:#838383;}
	.st36{fill:#ECF5FF;}
	.st37{opacity:0.3;}
	.st38{opacity:0.2;fill:#404041;}
	.st39{fill-rule:evenodd;clip-rule:evenodd;fill:#CDD7FC;}
	.st40{clip-path:url(#SVGID_8_);}
	.st41{fill:#B8BCFC;}
	.st42{fill:#FFAD94;}
	.st43{fill:#F49B87;}
	.st44{fill:#EA8365;}
	.st45{fill:#CC7A5A;}
	.st46{clip-path:url(#SVGID_10_);}
	.st47{fill:#FFE388;}
	.st48{fill:#E5E2E6;}
	.st49{fill:#ECF3FA;}
	.st50{fill:url(#SVGID_11_);}
	.st51{fill:#F5F7F8;}
	.st52{fill:#8080E6;}
	.st53{fill:url(#SVGID_12_);}
	.st54{fill:#7270DF;}
	.st55{fill:url(#SVGID_13_);}
	.st56{fill:#F9B9A8;}
	.st57{opacity:8.000000e-02;fill:#2C788F;}
	.st58{fill:#F6A3A8;}
	.st59{fill:#F9BAA9;}
	.st60{fill:#D0AC80;}
	.st61{fill:#DBD5A5;}
	.st62{fill:#F7AA67;}
</style>
<g>
	<path class="st0" d="M565.7,346.5c-4.4-10.3-15.2-13.2-27.9-5.8c-0.4,0.2-0.7,0.4-1.1,0.7c-3.6-12.4-15.1-16.4-28.8-8.5
		c-10.4,6-19.5,17.4-24.9,29.8c-2.5,0.7-5.2,1.8-8,3.4c-16.1,9.3-29.1,31.4-29.7,50.1l-1,0.6c-12.5,7.2-22.6,24.7-22.6,39.1
		c0,14.4,10.2,20.2,22.7,12.9l121.1-69.9c12.5-7.2,22.6-24.7,22.6-39.1C588,345.4,578,339.6,565.7,346.5z"/>
	<path class="st0" d="M1350.9,342.1c4.4-10.3,15.2-13.2,27.9-5.8c0.4,0.2,0.7,0.4,1.1,0.7c3.6-12.4,15.1-16.4,28.8-8.5
		c10.4,6,19.5,17.4,24.9,29.8c2.5,0.7,5.2,1.8,8,3.4c16.1,9.3,29.1,31.4,29.7,50.1l1,0.6c12.5,7.2,22.6,24.7,22.6,39.1
		c0,14.4-10.2,20.2-22.7,12.9l-121.1-69.9c-12.5-7.2-22.6-24.7-22.6-39.1C1328.6,341,1338.5,335.2,1350.9,342.1z"/>
	<path class="st0" d="M1861.6,702.4c4.4-10.3,15.2-13.2,27.9-5.8c0.4,0.2,0.7,0.4,1.1,0.7c3.6-12.4,15.1-16.4,28.8-8.5
		c10.4,6,19.5,17.4,24.9,29.8c2.5,0.7,5.2,1.8,8,3.4c16.1,9.3,29.1,31.4,29.7,50.1l1,0.6c12.5,7.2,22.6,24.7,22.6,39.1
		c0,14.4-10.2,20.2-22.7,12.9l-121.1-69.9c-12.5-7.2-22.6-24.7-22.6-39.1C1839.2,701.3,1849.2,695.5,1861.6,702.4z"/>
	<g>
		<g>
			<g>
				<path class="st1" d="M1919.5,715.3l-0.1-178.4c0-6.9-3.7-13.2-9.6-16.7l-77.6-44.9c-1.2-0.7-2.4-1-3.6-1l0,0
					c0,0-9.8-1.9-14.2,8.5l6.8,4.2l0,0l0.1,178.6c0,4.8,2.6,9.2,6.7,11.6l76.9,44.3l-1,6.7c12.3,0.1,15.1-10.1,15.1-10.1l0,0
					C1919.3,717.4,1919.5,716.4,1919.5,715.3z"/>
				<path class="st2" d="M1911.8,541.4c0-6.9-3.7-13.2-9.6-16.7l-77.6-44.9c-4.9-2.8-11,0.7-11,6.3l0.1,183.9
					c0,4.8,2.6,9.2,6.7,11.6l78.7,45.4c5.7,3.3,12.7-0.8,12.7-7.4L1911.8,541.4z"/>
				<polygon class="st3" points="1816.8,662.6 1908.8,715.6 1908.7,543.3 1816.8,490.2 				"/>
				<path class="st0" d="M1919.5,715.3l-0.1-178.4c0-6.9-3.7-13.2-9.6-16.7l-77.6-44.9c-1.2-0.7-2.4-1-3.6-1l0,0c0,0-5.1-1-9.7,2.4
					c3.6-1.5,6.9-0.9,6.9-0.9l0,0c1.2,0,2.4,0.3,3.6,1l77.6,44.9c6,3.4,9.6,9.8,9.6,16.7l0.1,178.4c0,1.1-0.2,2-0.5,2.9l0,0
					c0,0-1.2,4.2-5.2,7.1c6.3-2.7,7.9-8.7,7.9-8.7l0,0C1919.3,717.4,1919.5,716.4,1919.5,715.3z"/>
			</g>
		</g>
		<g>
			<polygon class="st4" points="1822.9,659.5 1836,667.1 1836,663.8 1822.9,656.2 			"/>
			<polygon class="st5" points="1822.9,653 1836,660.6 1836,657.3 1822.9,649.7 			"/>
			<polygon class="st4" points="1822.9,646.6 1836,654.2 1836,650.9 1822.9,643.3 			"/>
			<polygon class="st4" points="1849.6,655.6 1902.9,686.4 1902.9,683.1 1849.6,652.3 			"/>
			<polygon class="st4" points="1822.9,640.1 1836,647.7 1836,644.4 1822.9,636.8 			"/>
			<polygon class="st4" points="1822.9,633.7 1836,641.3 1836,637.9 1822.9,630.4 			"/>
			<polygon class="st5" points="1822.9,627.2 1836,634.8 1836,631.5 1822.9,623.9 			"/>
			<polygon class="st4" points="1822.9,620.8 1836,628.3 1836,625 1822.9,617.5 			"/>
			<polygon class="st4" points="1822.9,614.3 1836,621.9 1836,618.6 1822.9,611 			"/>
			<polygon class="st5" points="1822.9,607.9 1836,615.4 1836,612.1 1822.9,604.6 			"/>
			<polygon class="st4" points="1822.9,601.4 1836,609 1836,605.7 1822.9,598.1 			"/>
			<polygon class="st4" points="1822.9,595 1836,602.5 1836,599.2 1822.9,591.7 			"/>
			<polygon class="st4" points="1822.9,588.5 1836,596.1 1836,592.8 1822.9,585.2 			"/>
			<polygon class="st5" points="1822.9,582.1 1836,589.6 1836,586.3 1822.9,578.8 			"/>
			<polygon class="st4" points="1875,628.2 1849.6,613.5 1849.6,616.9 1875,631.5 			"/>
			<polygon class="st4" points="1877.5,633 1902.9,647.7 1902.9,644.4 1877.5,629.7 			"/>
			<polygon class="st4" points="1859.3,612.7 1849.6,607.1 1849.6,610.4 1859.3,616 			"/>
			<polygon class="st4" points="1861.9,617.5 1902.9,641.3 1902.9,638 1861.9,614.2 			"/>
			<polygon class="st4" points="1892.3,622.2 1902.9,628.4 1902.9,625.1 1892.3,618.9 			"/>
			<polygon class="st4" points="1889.8,617.4 1857,598.5 1857,601.8 1889.8,620.7 			"/>
			<polygon class="st5" points="1870.4,616 1902.9,634.8 1902.9,631.5 1870.4,612.7 			"/>
			<polygon class="st4" points="1892.3,648.1 1902.9,654.2 1902.9,650.9 1892.3,644.8 			"/>
			<polygon class="st5" points="1861.9,682 1902.9,705.8 1902.9,702.5 1861.9,678.7 			"/>
			<polygon class="st4" points="1865.9,674.6 1849.6,665.2 1849.6,668.5 1865.9,677.9 			"/>
			<polygon class="st4" points="1868.5,679.4 1902.9,699.3 1902.9,696 1868.5,676.1 			"/>
			<polygon class="st4" points="1877.1,678 1902.9,692.9 1902.9,689.6 1877.1,674.6 			"/>
			<polygon class="st5" points="1867.2,649.5 1849.6,639.4 1849.6,642.7 1867.2,652.8 			"/>
			<polygon class="st5" points="1869.8,654.3 1902.9,673.5 1902.9,670.2 1869.8,651 			"/>
			<polygon class="st4" points="1855.7,639.8 1902.9,667.1 1902.9,663.8 1855.7,636.5 			"/>
			<polygon class="st4" points="1877.5,645.9 1902.9,660.6 1902.9,657.3 1877.5,642.6 			"/>
			<polygon class="st4" points="1861.9,630.4 1889.8,646.6 1889.8,643.3 1861.9,627.1 			"/>
			<polygon class="st4" points="1861.9,656.2 1883,668.5 1883,665.2 1861.9,652.9 			"/>
			<polygon class="st4" points="1885.6,670 1902.9,680 1902.9,676.7 1885.6,666.7 			"/>
		</g>
		<g>
			<polygon class="st4" points="1822.9,567.9 1836,575.5 1836,572.1 1822.9,564.6 			"/>
			<polygon class="st5" points="1822.9,561.4 1836,569 1836,565.7 1822.9,558.1 			"/>
			<polygon class="st4" points="1822.9,555 1836,562.5 1836,559.2 1822.9,551.7 			"/>
			<polygon class="st4" points="1849.6,564 1902.9,594.8 1902.9,591.5 1849.6,560.6 			"/>
			<polygon class="st4" points="1822.9,548.5 1836,556.1 1836,552.8 1822.9,545.2 			"/>
			<polygon class="st4" points="1822.9,542.1 1836,549.6 1836,546.3 1822.9,538.8 			"/>
			<polygon class="st5" points="1822.9,535.6 1836,543.2 1836,539.9 1822.9,532.3 			"/>
			<polygon class="st4" points="1822.9,529.2 1836,536.7 1836,533.4 1822.9,525.9 			"/>
			<polygon class="st4" points="1822.9,522.7 1836,530.3 1836,527 1822.9,519.4 			"/>
			<polygon class="st5" points="1822.9,516.3 1836,523.8 1836,520.5 1822.9,513 			"/>
			<polygon class="st4" points="1892.3,556.4 1902.9,562.6 1902.9,559.3 1892.3,553.1 			"/>
			<polygon class="st5" points="1861.9,590.4 1902.9,614.2 1902.9,610.9 1861.9,587.1 			"/>
			<polygon class="st4" points="1865.9,583 1849.6,573.6 1849.6,576.9 1865.9,586.3 			"/>
			<polygon class="st4" points="1868.5,587.8 1902.9,607.7 1902.9,604.4 1868.5,584.5 			"/>
			<polygon class="st4" points="1877.1,586.3 1902.9,601.3 1902.9,598 1877.1,583 			"/>
			<polygon class="st5" points="1867.2,557.9 1849.6,547.7 1849.6,551 1867.2,561.2 			"/>
			<polygon class="st5" points="1869.8,562.7 1902.9,581.9 1902.9,578.6 1869.8,559.4 			"/>
			<polygon class="st4" points="1855.7,548.2 1902.9,575.5 1902.9,572.2 1855.7,544.9 			"/>
			<polygon class="st4" points="1877.5,554.3 1902.9,569 1902.9,565.7 1877.5,551 			"/>
			<polygon class="st4" points="1861.9,538.8 1889.8,554.9 1889.8,551.6 1861.9,535.5 			"/>
			<polygon class="st4" points="1861.9,564.6 1883,576.9 1883,573.6 1861.9,561.3 			"/>
			<polygon class="st4" points="1885.6,578.4 1902.9,588.4 1902.9,585.1 1885.6,575.1 			"/>
		</g>
		<g>
			<polygon class="st4" points="1830.3,506.2 1840.8,512.3 1840.8,511 1830.3,504.9 			"/>
			<polygon class="st5" points="1822.9,502 1827.4,504.6 1827.4,503.3 1822.9,500.7 			"/>
			<polygon class="st4" points="1833.1,505.8 1840.8,510.2 1840.8,508.9 1833.1,504.5 			"/>
			<polygon class="st5" points="1832.4,504.1 1830.3,502.9 1830.3,504.1 1832.4,505.3 			"/>
			<polygon class="st4" points="1825.2,499.9 1822.9,498.6 1822.9,499.9 1825.2,501.2 			"/>
			<polygon class="st5" points="1851,518.2 1861.5,524.2 1861.5,522.9 1851,516.9 			"/>
			<polygon class="st4" points="1843.6,513.9 1848.1,516.5 1848.1,515.2 1843.6,512.6 			"/>
			<polygon class="st4" points="1853.8,517.7 1861.5,522.1 1861.5,520.9 1853.8,516.4 			"/>
			<polygon class="st4" points="1853.1,516 1851,514.8 1851,516.1 1853.1,517.3 			"/>
			<polygon class="st4" points="1845.9,511.9 1843.6,510.6 1843.6,511.8 1845.9,513.1 			"/>
			<polygon class="st4" points="1871.7,530.1 1882.2,536.1 1882.2,534.8 1871.7,528.8 			"/>
			<polygon class="st4" points="1864.3,525.8 1868.8,528.4 1868.8,527.1 1864.3,524.5 			"/>
			<polygon class="st5" points="1874.5,529.6 1882.2,534.1 1882.2,532.8 1874.5,528.3 			"/>
			<polygon class="st4" points="1873.8,527.9 1871.7,526.7 1871.7,528 1873.8,529.2 			"/>
			<polygon class="st4" points="1866.6,523.8 1864.3,522.5 1864.3,523.8 1866.6,525.1 			"/>
			<polygon class="st4" points="1892.4,542 1902.9,548.1 1902.9,546.8 1892.4,540.7 			"/>
			<polygon class="st4" points="1885,537.8 1889.5,540.4 1889.5,539.1 1885,536.5 			"/>
			<polygon class="st5" points="1895.2,540.3 1895.2,541.6 1902.9,546 1902.9,544.7 			"/>
			<polygon class="st4" points="1894.5,539.9 1892.4,538.7 1892.4,540 1894.5,541.2 			"/>
			<polygon class="st4" points="1887.3,535.7 1885,534.4 1885,535.7 1887.3,537 			"/>
		</g>
	</g>
	<g>
		<g>
			<g>
				<g>
					<path class="st6" d="M1979.8,489.2l-76.1-43.9c-2.1-1.2-4.5-1.1-6.4,0l0,0l-0.1,0c0,0,0,0,0,0l-9.2,5.3l8.9,31.9v61.1
						c0,7.6,4.1,14.7,10.7,18.5l64.6,37.3l3.5,9.6l9.2-5.4l0,0c3.4-1.9,5.9-5.6,5.9-10.1v-84.9
						C1990.9,500.5,1986.7,493.2,1979.8,489.2z"/>
					<path class="st7" d="M1982,513.7v84.9c0,9-9.7,14.5-17.4,10.1l-68.8-39.7c-6.6-3.8-10.7-10.9-10.7-18.5v-94.4
						c0-5,5.4-8.1,9.7-5.6l76.1,43.9C1977.7,498.4,1982,505.7,1982,513.7z"/>
				</g>
			</g>
		</g>
		<polygon class="st2" points="1951.2,498.1 1913.1,518.4 1930.5,539 1911.8,564.2 1950.9,545.5 1933.1,524.4 		"/>
	</g>
	<g>
		<path class="st0" d="M993.6,949.5c1.3-1.3,2.8-2.5,4.5-3.5L1487.6,663c12.1-7,27.1-7,39.2,0l375.5,217.2h20v29.3
			c0,5.6-2.7,11.2-8.2,14.4l-488.8,282.7c-16.5,9.5-36.7,9.5-53.2,0L998.1,990.2c-6.8-4-10.3-10.9-10.3-17.8h0v-29.8L993.6,949.5z"
			/>
		<path class="st1" d="M1382.1,1211c-3.4-1.1-6.7-2.6-9.9-4.4L998.1,990.2c-6.8-4-10.3-10.9-10.3-17.8h0v-29.8l5.8,6.9
			c1.3-1.3,2.8-2.5,4.5-3.5l24.9-14.4l359.1,201.5V1211z"/>
		<path class="st8" d="M998.1,925l489.5-283.1c12.1-7,27.1-7,39.2,0l387.3,224c11,6.3,11,22.2,0,28.5l-488.8,282.7
			c-16.5,9.5-36.7,9.5-53.2,0L998.1,960.7C984.4,952.8,984.4,932.9,998.1,925z"/>
	</g>
	<g>
		<path class="st0" d="M519.4,675.4c1.3-1.3,2.8-2.5,4.5-3.5l489.5-283.1c12.1-7,27.1-7,39.2,0L1428.1,606h20v29.3
			c0,5.6-2.7,11.2-8.2,14.4L951.1,932.4c-16.5,9.5-36.7,9.5-53.2,0L523.8,716c-6.8-4-10.3-10.9-10.3-17.8h0v-29.8L519.4,675.4z"/>
		<path class="st1" d="M907.8,936.8c-3.4-1.1-6.7-2.6-9.9-4.4L523.8,716c-6.8-4-10.3-10.9-10.3-17.8h0v-29.8l5.8,6.9
			c1.3-1.3,2.8-2.5,4.5-3.5l24.9-14.4L907.8,859V936.8z"/>
		<path class="st8" d="M523.9,650.8l489.5-283.1c12.1-7,27.1-7,39.2,0l387.3,224c11,6.3,11,22.2,0,28.5L951.1,903
			c-16.5,9.5-36.7,9.5-53.2,0L523.8,686.6C510.1,678.6,510.1,658.8,523.9,650.8z"/>
	</g>
	<g>
		<g>
			<polygon class="st1" points="1208,527 998.8,406.3 998.8,496.5 1208,617.3 			"/>
			<polygon class="st0" points="1208,625.3 1208,527 1326.4,458.7 1326.4,556.9 			"/>
			<polygon class="st9" points="1208,527 1326.4,458.7 1050.6,299.4 932.2,367.8 			"/>
			<polygon class="st9" points="559.1,664.5 921.4,451.8 1208,617.3 1073.2,695.2 958,628.6 727.5,761.7 			"/>
			<polygon class="st8" points="1130.8,329.3 727.5,562.1 554.7,462.3 957.9,229.5 			"/>
			<polygon class="st1" points="554.7,572.3 554.7,661.9 563.7,667.1 563.7,577.5 			"/>
			<polygon class="st10" points="621.3,633.8 621.3,606.8 727.5,667.1 727.5,695.2 			"/>
			<polygon class="st11" points="727.5,695.2 1035.2,517.5 1035.2,489.1 727.5,667.1 			"/>
			<g>
				<defs>
					<polygon id="SVGID_1_" points="727.5,695.2 1035.2,517.5 1035.2,489.1 727.5,667.1 					"/>
				</defs>
				<clipPath id="SVGID_2_">
					<use xlink:href="#SVGID_1_"  style="overflow:visible;"/>
				</clipPath>
				<g class="st12">
					<polygon class="st13" points="1101.2,521.6 1117.2,521.6 991.4,394.6 975.4,394.6 					"/>
					<polygon class="st13" points="928.5,643.8 944.5,643.8 818.8,516.8 802.8,516.8 					"/>
					<polygon class="st13" points="1056.6,561.7 1084.8,554 959,427 930.9,434.7 					"/>
					<polygon class="st13" points="1016.6,601.3 1044.8,593.6 919,466.5 890.9,474.2 					"/>
					<polygon class="st13" points="947.2,638 975.3,630.3 849.6,503.2 821.4,511 					"/>
				</g>
			</g>
			<polygon class="st1" points="727.5,769.6 727.5,761.7 554.7,661.9 554.7,669.8 			"/>
			<polygon class="st0" points="727.5,769.6 727.5,761.7 958,628.6 958,636.6 			"/>
			<polygon class="st1" points="1073.2,703.1 1073.2,695.2 958,628.6 958,636.6 			"/>
			<polygon class="st0" points="1208,617.3 1208,625.3 1073.2,703.1 1073.2,695.2 			"/>
			<polygon class="st0" points="621.3,633.9 563.7,667.1 563.7,577.5 621.3,610.8 			"/>
			<polygon class="st14" points="977.1,261.4 1112.1,339.3 727.5,561.4 573.4,472.4 957.9,250.4 957.9,261.4 			"/>
			<polygon class="st0" points="567.3,465.1 957.9,239.6 957.9,250.4 579.4,468.9 			"/>
			<polygon class="st1" points="977.8,251 1113.7,329.5 1105.6,335.6 977.1,261.4 957.9,250.4 957.9,239.6 			"/>
			<polygon class="st1" points="727.5,562.1 727.5,672.1 554.7,572.3 554.7,462.3 			"/>
			<polygon class="st0" points="1130.8,329.3 1130.8,439.2 727.5,672.1 727.5,562.1 			"/>
			<path class="st9" d="M957.9,229.5L554.7,462.3l172.8,99.8l403.3-232.8L957.9,229.5z M573.4,462.3l384.5-222l154.1,89l-384.5,222
				L573.4,462.3z"/>
			<polygon class="st0" points="671.8,665.9 671.8,640 662.7,634.7 662.7,660.7 			"/>
			<polygon class="st10" points="708.8,648.8 708.8,563.6 570.4,484.6 570.4,569.9 			"/>
			<g>
				<defs>
					<polygon id="SVGID_3_" points="708.8,648.8 708.8,563.6 570.4,484.6 570.4,569.9 					"/>
				</defs>
				<clipPath id="SVGID_4_">
					<use xlink:href="#SVGID_3_"  style="overflow:visible;"/>
				</clipPath>
				<g class="st15">
					<polygon class="st13" points="632.3,647.6 649.3,647.6 532.7,463.9 515.7,463.9 					"/>
					<polygon class="st11" points="748.5,651.7 765.6,651.7 649,468.1 631.9,468.1 					"/>
					<polygon class="st11" points="688.1,663.9 705.1,663.9 588.5,480.2 571.5,480.2 					"/>
				</g>
			</g>
			<polygon class="st16" points="671.8,665.9 674.3,664.5 674.3,641.4 671.8,640 			"/>
			<polygon class="st17" points="783.2,665.9 783.2,640 792.4,634.7 792.4,660.7 			"/>
			<polygon class="st1" points="783.2,665.9 780.7,664.5 780.7,641.4 783.2,640 			"/>
			<polygon class="st17" points="845.2,630.1 845.2,604.1 854.4,598.8 854.4,624.8 			"/>
			<polygon class="st1" points="845.2,630.1 842.7,628.6 842.7,605.6 845.2,604.1 			"/>
			<polygon class="st1" points="902.8,596.8 900.3,595.4 900.3,572.3 902.8,570.9 			"/>
			<polygon class="st18" points="992.7,543 992.7,519 993.8,518.4 993.8,542.4 			"/>
			<polygon class="st19" points="992.7,543 991.9,542.5 991.9,519.5 992.7,519 			"/>
			<polygon class="st17" points="1037.7,492.9 1037.7,519 902.8,596.8 902.8,570.9 			"/>
			<polygon class="st1" points="996.8,542.6 983,534.6 983,524.6 996.8,516.6 			"/>
			<polygon class="st11" points="983,534.6 943.3,557.5 943.3,547.5 983,524.6 			"/>
			<polygon class="st9" points="943.3,557.5 943.3,573.5 998.1,543.3 983,534.6 			"/>
			<g>
				<polygon class="st11" points="1002.5,536.4 1002.5,513.3 1007.3,510.5 1007.3,533.6 				"/>
				<polygon class="st1" points="1007.3,510.5 1006.1,511.2 1006.1,532.9 1007.3,533.6 				"/>
				<polygon class="st9" points="1006.1,532.9 1002.5,535 1002.5,536.4 1007.3,533.6 				"/>
			</g>
			<g>
				<polygon class="st11" points="1010.8,531.6 1010.8,508.5 1015.6,505.8 1015.6,528.8 				"/>
				<polygon class="st1" points="1015.6,505.8 1014.4,506.5 1014.4,528.2 1015.6,528.8 				"/>
				<polygon class="st9" points="1014.4,528.2 1010.8,530.2 1010.8,531.6 1015.6,528.8 				"/>
			</g>
			<g>
				<polygon class="st11" points="1019,526.9 1019,503.7 1023.8,501 1023.8,524.1 				"/>
				<polygon class="st1" points="1023.8,501 1022.6,501.7 1022.6,523.4 1023.8,524.1 				"/>
				<polygon class="st9" points="1022.6,523.4 1019,525.4 1019,526.9 1023.8,524.1 				"/>
			</g>
			<g>
				<polygon class="st11" points="916,586.4 916,563.3 920.8,560.5 920.8,583.6 				"/>
				<polygon class="st1" points="920.8,560.5 919.6,561.2 919.6,582.9 920.8,583.6 				"/>
				<polygon class="st9" points="919.6,582.9 916,584.9 916,586.4 920.8,583.6 				"/>
			</g>
			<g>
				<polygon class="st11" points="924.3,581.6 924.3,558.5 929.1,555.7 929.1,578.8 				"/>
				<polygon class="st1" points="929.1,555.7 927.9,556.4 927.9,578.1 929.1,578.8 				"/>
				<polygon class="st9" points="927.9,578.1 924.3,580.2 924.3,581.6 929.1,578.8 				"/>
			</g>
			<g>
				<polygon class="st11" points="932.5,576.8 932.5,553.7 937.3,551 937.3,574 				"/>
				<polygon class="st1" points="937.3,551 936.1,551.7 936.1,573.4 937.3,574 				"/>
				<polygon class="st9" points="936.1,573.4 932.5,575.4 932.5,576.8 937.3,574 				"/>
			</g>
			<polygon class="st9" points="570.4,569.9 598.1,553.9 708.8,617.8 708.8,648.8 			"/>
			<polygon class="st0" points="598.1,553.9 570.4,569.9 570.4,484.6 598.1,500.4 			"/>
			<polygon class="st11" points="795.4,620 795.4,534.8 1121.1,346.6 1121.1,431.9 			"/>
			<g>
				<defs>
					<polygon id="SVGID_5_" points="795.4,620 795.4,534.8 1121.1,346.6 1121.1,431.9 					"/>
				</defs>
				<clipPath id="SVGID_6_">
					<use xlink:href="#SVGID_5_"  style="overflow:visible;"/>
				</clipPath>
				<g class="st20">
					<polygon class="st13" points="1168.6,448.5 1184.6,448.5 1058.8,321.4 1042.8,321.4 					"/>
					<polygon class="st10" points="915.2,630.2 931.2,630.2 805.4,503.2 789.4,503.2 					"/>
					<polygon class="st10" points="995.9,570.7 1011.9,570.7 886.1,443.6 870.1,443.6 					"/>
					<polygon class="st10" points="928,620.2 938,621.9 812.2,494.8 802.2,493.1 					"/>
					<polygon class="st10" points="1124,488.6 1152.2,480.9 1026.4,353.8 998.2,361.5 					"/>
					<polygon class="st10" points="1084,528.1 1112.2,520.4 986.4,393.3 958.2,401 					"/>
					<polygon class="st10" points="838.9,668.2 867.1,660.5 741.3,533.4 713.1,541.2 					"/>
					<polygon class="st10" points="1014.5,564.9 1042.7,557.1 916.9,430.1 888.7,437.8 					"/>
				</g>
			</g>
			<polygon class="st1" points="1121.1,346.6 1117.9,348.5 1117.9,430.2 1121.1,431.9 			"/>
			<polygon class="st9" points="1121.1,431.9 1117.9,430.2 795.4,616.4 795.4,620 			"/>
			<polygon class="st21" points="900.8,556.9 899.4,556.1 899.4,483.6 900.8,482.8 			"/>
			<polygon class="st21" points="938.7,534.9 937.3,534.1 937.3,461.6 938.7,460.8 			"/>
			<polygon class="st21" points="976.5,512.9 975.2,512.1 975.2,439.7 976.5,438.8 			"/>
			<polygon class="st21" points="1014.4,490.9 1013,490.1 1013,417.7 1014.4,416.9 			"/>
			<polygon class="st21" points="1090.1,447 1088.7,446.1 1088.7,373.7 1090.1,372.9 			"/>
			<polygon class="st21" points="1118,426 795.4,612.3 795.4,613.7 1119.2,426.6 			"/>
			<polygon class="st4" points="825.1,600.9 825.1,526.8 829.8,524.1 829.8,598.2 			"/>
			<polygon class="st21" points="825.1,600.8 823.7,600 823.7,527.6 825.1,526.8 			"/>
			<polygon class="st4" points="900.8,556.9 900.8,482.8 905.5,480.1 905.5,554.2 			"/>
			<polygon class="st4" points="938.7,534.9 938.7,460.8 943.3,458.1 943.3,532.2 			"/>
			<polygon class="st4" points="976.5,512.9 976.5,438.8 981.2,436.2 981.2,510.2 			"/>
			<polygon class="st4" points="1014.4,490.9 1014.4,416.9 1019.1,414.2 1019.1,488.3 			"/>
			<polygon class="st4" points="1090.1,447 1090.1,372.9 1094.8,370.2 1094.8,444.3 			"/>
			<polygon class="st4" points="795.4,618.1 795.4,613.7 1119.2,426.6 1119.2,430.8 			"/>
			<polygon class="st1" points="795.4,546.9 795.4,543.9 1119.2,356.9 1119.2,359.9 			"/>
			<polygon class="st4" points="795.4,543.9 795.4,534.8 1119.2,347.7 1119.2,357 			"/>
			<polygon class="st4" points="1218,619.5 1218,534.3 1319.1,475.8 1319.1,561.1 			"/>
			<polygon class="st21" points="1218,537.9 1218,534.3 1319.1,475.8 1319.1,479.5 			"/>
			<polygon class="st21" points="1218,545.4 1218,541.8 1319.1,483.3 1319.1,487 			"/>
			<polygon class="st21" points="1218,552.9 1218,549.3 1319.1,490.8 1319.1,494.6 			"/>
			<polygon class="st21" points="1218,560.5 1218,556.8 1319.1,498.3 1319.1,502.1 			"/>
			<polygon class="st21" points="1218,568 1218,564.3 1319.1,505.9 1319.1,509.6 			"/>
			<polygon class="st21" points="1218,575.5 1218,571.9 1319.1,513.4 1319.1,517.1 			"/>
			<polygon class="st21" points="1218,583 1218,579.4 1319.1,520.9 1319.1,524.6 			"/>
			<polygon class="st21" points="1218,590.5 1218,586.9 1319.1,528.4 1319.1,532.1 			"/>
			<polygon class="st21" points="1218,598 1218,594.4 1319.1,535.9 1319.1,539.6 			"/>
			<polygon class="st21" points="1218,605.6 1218,601.9 1319.1,543.4 1319.1,547.2 			"/>
			<polygon class="st21" points="1218,614.5 1218,609.4 1319.1,551 1319.1,556.1 			"/>
			<polygon class="st9" points="1319.1,561.1 1314.6,558.8 1314.6,478.4 1319.1,475.8 			"/>
			<polygon class="st8" points="1314.6,558.8 1218,614.4 1218,619.5 1319.1,561.1 			"/>
		</g>
	</g>
	<g>
		<g>
			<g>
				<polygon class="st9" points="658.3,444.4 699.3,420.8 805.9,482.5 765,506 				"/>
				<polygon class="st0" points="765,512.4 765,506 805.9,482.5 805.9,488.8 				"/>
				<path class="st0" d="M808.4,457.5c-0.1-0.7-0.5-1.3-1.1-1.6l-108.9-62.4c-0.3-0.2-0.7-0.3-1.1-0.3c-0.6,0-1.2,0.3-1.7,0.7
					l-36.7,40c-0.5,0.5-0.7,1.2-0.6,1.9c0.1,0.7,0.5,1.3,1.1,1.6l108,62.3c0.4,0.2,0.7,0.3,1.1,0.3c0.6,0,1.2-0.2,1.6-0.7l37.6-39.9
					C808.2,458.8,808.5,458.1,808.4,457.5z M806.1,457.8l-37.6,39.9l-108-62.3l36.7-40L806.1,457.8z"/>
				<polygon class="st1" points="765,506 765,512.4 658.3,450.8 658.3,444.4 				"/>
				<polygon class="st22" points="768.6,495.6 806.1,455.7 697.3,393.3 660.6,433.2 				"/>
				<path class="st23" d="M808.4,455.4c-0.1-0.7-0.5-1.3-1.1-1.6l-108.9-62.4c-0.3-0.2-0.7-0.3-1.1-0.3c-0.6,0-1.2,0.3-1.7,0.7
					l-36.7,40c-0.5,0.5-0.7,1.2-0.6,1.9c0.1,0.7,0.5,1.3,1.1,1.6l108,62.3c0.4,0.2,0.7,0.3,1.1,0.3c0.6,0,1.2-0.2,1.6-0.7l37.6-39.9
					C808.2,456.7,808.5,456.1,808.4,455.4z M806.1,455.7l-37.6,39.9l-108-62.3l36.7-40L806.1,455.7z"/>
				<polygon class="st23" points="709.9,399.8 708.8,399.2 671.2,440.1 672.2,440.7 				"/>
				<polygon class="st23" points="722.6,406.9 721.6,406.3 683.9,447.2 685,447.8 				"/>
				<polygon class="st23" points="735.3,414 734.3,413.4 696.7,454.3 697.7,454.9 				"/>
				<polygon class="st23" points="747.7,421.3 746.7,420.7 709.1,461.7 710.1,462.3 				"/>
				<polygon class="st23" points="760.3,428.6 759.2,428 721.6,468.9 722.6,469.5 				"/>
				<polygon class="st23" points="772,435.8 771,435.2 733.4,476.1 734.4,476.7 				"/>
				<polygon class="st23" points="784.4,442.4 783.3,441.8 745.7,482.7 746.7,483.3 				"/>
				<polygon class="st23" points="795.8,449 794.8,448.3 757.2,489.3 758.2,489.9 				"/>
				<polygon class="st24" points="686.5,403.6 686.2,404.1 796.3,467.7 796.6,467.2 				"/>
				
					<rect x="738.8" y="374.8" transform="matrix(0.5008 -0.8656 0.8656 0.5008 -10.4558 858.6144)" class="st24" width="0.6" height="127.1"/>
				<polygon class="st24" points="672.4,418.8 672.1,419.3 782.1,482.8 782.4,482.3 				"/>
				<polygon class="st24" points="670.4,421.2 670.1,421.6 780.1,485.2 780.4,484.7 				"/>
			</g>
		</g>
		<g>
			<g>
				<polygon class="st9" points="767.7,381.2 808.6,357.6 915.3,419.3 874.4,442.8 				"/>
				<polygon class="st0" points="874.4,449.2 874.4,442.8 915.3,419.3 915.3,425.7 				"/>
				<path class="st0" d="M917.7,394.3c-0.1-0.7-0.5-1.3-1.1-1.6l-108.9-62.4c-0.3-0.2-0.7-0.3-1.1-0.3c-0.6,0-1.2,0.3-1.7,0.7
					l-36.7,40c-0.5,0.5-0.7,1.2-0.6,1.9c0.1,0.7,0.5,1.3,1.1,1.6l108,62.3c0.4,0.2,0.7,0.3,1.1,0.3c0.6,0,1.2-0.2,1.6-0.7l37.6-39.9
					C917.6,395.7,917.8,395,917.7,394.3z M915.5,394.6l-37.6,39.9l-108-62.3l36.7-40L915.5,394.6z"/>
				<polygon class="st1" points="874.4,442.8 874.4,449.2 767.7,387.6 767.7,381.2 				"/>
				<polygon class="st22" points="877.9,432.4 915.5,392.6 806.7,330.1 770,370.1 				"/>
				<path class="st23" d="M917.7,392.2c-0.1-0.7-0.5-1.3-1.1-1.6l-108.9-62.4c-0.3-0.2-0.7-0.3-1.1-0.3c-0.6,0-1.2,0.3-1.7,0.7
					l-36.7,40c-0.5,0.5-0.7,1.2-0.6,1.9c0.1,0.7,0.5,1.3,1.1,1.6l108,62.3c0.4,0.2,0.7,0.3,1.1,0.3c0.6,0,1.2-0.2,1.6-0.7l37.6-39.9
					C917.6,393.6,917.8,392.9,917.7,392.2z M915.5,392.6l-37.6,39.9l-108-62.3l36.7-40L915.5,392.6z"/>
				<polygon class="st23" points="819.2,336.6 818.2,336 780.6,377 781.6,377.6 				"/>
				<polygon class="st23" points="832,343.7 830.9,343.1 793.3,384.1 794.3,384.7 				"/>
				<polygon class="st23" points="844.7,350.8 843.7,350.2 806,391.2 807.1,391.8 				"/>
				<polygon class="st23" points="857.1,358.2 856.1,357.6 818.5,398.5 819.5,399.1 				"/>
				<polygon class="st23" points="869.6,365.4 868.6,364.8 831,405.7 832,406.3 				"/>
				<polygon class="st23" points="881.4,372.6 880.4,372 842.7,413 843.8,413.6 				"/>
				<polygon class="st23" points="893.7,379.2 892.7,378.6 855.1,419.6 856.1,420.2 				"/>
				<polygon class="st23" points="905.2,385.8 904.2,385.2 866.5,426.1 867.6,426.7 				"/>
				<polygon class="st24" points="795.9,340.5 795.6,341 905.7,404.5 905.9,404 				"/>
				
					<rect x="848.2" y="311.7" transform="matrix(0.5008 -0.8656 0.8656 0.5008 98.8158 921.7639)" class="st24" width="0.6" height="127.1"/>
				<polygon class="st24" points="781.7,355.6 781.5,356.1 891.5,419.7 891.8,419.2 				"/>
				<polygon class="st24" points="779.8,358 779.5,358.5 889.5,422 889.8,421.5 				"/>
			</g>
		</g>
		<g>
			<g>
				<polygon class="st9" points="877.1,318.1 918,294.5 1024.6,356.1 983.8,379.7 				"/>
				<polygon class="st0" points="983.8,386.1 983.8,379.7 1024.6,356.1 1024.6,362.5 				"/>
				<path class="st0" d="M1027.1,331.1c-0.1-0.7-0.5-1.3-1.1-1.6l-108.9-62.4c-0.3-0.2-0.7-0.3-1.1-0.3c-0.6,0-1.2,0.3-1.7,0.7
					l-36.7,40c-0.5,0.5-0.7,1.2-0.6,1.9c0.1,0.7,0.5,1.3,1.1,1.6l108,62.3c0.4,0.2,0.7,0.3,1.1,0.3c0.6,0,1.2-0.2,1.6-0.7l37.6-39.9
					C1027,332.5,1027.2,331.8,1027.1,331.1z M1024.9,331.5l-37.6,39.9l-108-62.3l36.7-40L1024.9,331.5z"/>
				<polygon class="st1" points="983.8,379.7 983.8,386.1 877.1,324.5 877.1,318.1 				"/>
				<polygon class="st22" points="987.3,369.3 1024.9,329.4 916,267 879.3,306.9 				"/>
				<path class="st23" d="M1027.1,329.1c-0.1-0.7-0.5-1.3-1.1-1.6L917.2,265c-0.3-0.2-0.7-0.3-1.1-0.3c-0.6,0-1.2,0.3-1.7,0.7
					l-36.7,40c-0.5,0.5-0.7,1.2-0.6,1.9c0.1,0.7,0.5,1.3,1.1,1.6l108,62.3c0.4,0.2,0.7,0.3,1.1,0.3c0.6,0,1.2-0.2,1.6-0.7l37.6-39.9
					C1027,330.4,1027.2,329.8,1027.1,329.1z M1024.9,329.4l-37.6,39.9l-108-62.3l36.7-40L1024.9,329.4z"/>
				<polygon class="st23" points="928.6,273.5 927.6,272.9 890,313.8 891,314.4 				"/>
				<polygon class="st23" points="941.3,280.6 940.3,280 902.7,320.9 903.7,321.5 				"/>
				<polygon class="st23" points="954.1,287.7 953,287.1 915.4,328 916.4,328.6 				"/>
				<polygon class="st23" points="966.5,295 965.5,294.4 927.8,335.4 928.9,336 				"/>
				<polygon class="st23" points="979,302.3 978,301.6 940.4,342.6 941.4,343.2 				"/>
				<polygon class="st23" points="990.8,309.5 989.7,308.9 952.1,349.8 953.1,350.4 				"/>
				<polygon class="st23" points="1003.1,316.1 1002.1,315.5 964.5,356.4 965.5,357 				"/>
				<polygon class="st23" points="1014.6,322.7 1013.5,322 975.9,363 976.9,363.6 				"/>
				<polygon class="st24" points="905.3,277.3 905,277.8 1015,341.4 1015.3,340.9 				"/>
				
					<rect x="957.6" y="248.5" transform="matrix(0.5007 -0.8656 0.8656 0.5007 208.1472 984.98)" class="st24" width="0.6" height="127.1"/>
				<polygon class="st24" points="891.1,292.5 890.8,293 1000.9,356.5 1001.2,356 				"/>
				<polygon class="st24" points="889.1,294.8 888.9,295.3 998.9,358.9 999.2,358.4 				"/>
			</g>
		</g>
	</g>
	<g>
		<polygon class="st25" points="1065.3,752.7 1065.3,804 1052.8,796.8 1052.8,745.5 		"/>
		<polygon class="st26" points="1065.3,752.7 1065.3,804 1077.9,796.8 1077.9,745.5 		"/>
		<g>
			<polygon class="st27" points="1065.2,744.3 1065.2,789.1 1013.4,759.2 1013.4,714.5 			"/>
			<polygon class="st28" points="1013.4,714.5 1065.2,744.3 1117.3,714.2 1065.5,684.4 			"/>
			<polygon class="st29" points="1065.2,744.2 1065.2,789 1117.3,759 1117.3,714.2 			"/>
		</g>
		<g>
			<polygon class="st27" points="1065.2,690.5 1065.2,735.2 1013.4,705.4 1013.4,660.6 			"/>
			<polygon class="st28" points="1013.4,660.6 1065.2,690.5 1117.3,660.4 1065.5,630.6 			"/>
			<polygon class="st29" points="1065.2,690.4 1065.2,735.2 1117.3,705.1 1117.3,660.4 			"/>
		</g>
		<g>
			<polygon class="st27" points="1065.2,636.5 1065.2,681.3 1013.4,651.5 1013.4,606.7 			"/>
			<polygon class="st28" points="1013.4,606.7 1065.2,636.5 1117.3,606.5 1065.5,576.7 			"/>
			<polygon class="st29" points="1065.2,636.5 1065.2,681.3 1117.3,651.2 1117.3,606.5 			"/>
		</g>
	</g>
	<g>
		<polygon class="st25" points="924.3,834.3 924.3,885.6 911.8,878.4 911.8,827.1 		"/>
		<polygon class="st26" points="924.3,834.3 924.3,885.6 936.9,878.3 936.9,827 		"/>
		<g>
			<polygon class="st27" points="924.2,825.8 924.2,870.6 872.4,840.8 872.4,796 			"/>
			<polygon class="st28" points="872.4,796 924.2,825.8 976.3,795.8 924.5,765.9 			"/>
			<polygon class="st29" points="924.2,825.8 924.2,870.6 976.3,840.5 976.3,795.7 			"/>
		</g>
		<g>
			<polygon class="st27" points="924.2,772 924.2,816.8 872.4,787 872.4,742.2 			"/>
			<polygon class="st28" points="872.4,742.2 924.2,772 976.3,741.9 924.5,712.1 			"/>
			<polygon class="st29" points="924.2,772 924.2,816.7 976.3,786.7 976.3,741.9 			"/>
		</g>
		<g>
			<polygon class="st27" points="924.2,718.1 924.2,762.9 872.4,733.1 872.4,688.3 			"/>
			<polygon class="st28" points="872.4,688.3 924.2,718.1 976.3,688 924.5,658.2 			"/>
			<polygon class="st29" points="924.2,718.1 924.2,762.8 976.3,732.8 976.3,688 			"/>
		</g>
	</g>
	<g>
		<g>
			<g>
				<g>
					<polygon class="st30" points="1160.3,860 1160.3,920.7 1104.7,888.6 1104.7,827.9 					"/>
					<polygon class="st31" points="1160.3,860 1160.3,920.7 1248,870 1248,809.3 					"/>
					<polygon class="st32" points="1104.7,827.9 1160.3,860 1248,809.3 1192.4,777.2 					"/>
				</g>
				<polygon class="st0" points="1160.3,901.7 1160.3,911.8 1248,861.1 1248,851 				"/>
				<polygon class="st33" points="1160.3,901.7 1160.3,911.8 1104.7,879.7 1104.7,869.7 				"/>
			</g>
		</g>
		<g>
			<g>
				<g>
					<polygon class="st30" points="1066.7,914.1 1066.7,974.8 1011.1,942.7 1011.1,882 					"/>
					<polygon class="st31" points="1066.7,914.1 1066.7,974.8 1154.5,924 1154.5,863.4 					"/>
					<polygon class="st32" points="1011.1,882 1066.7,914.1 1154.5,863.4 1098.9,831.3 					"/>
				</g>
				<polygon class="st34" points="1066.7,955.8 1066.7,965.9 1154.5,915.1 1154.5,905.1 				"/>
				<polygon class="st1" points="1066.7,955.8 1066.7,965.9 1011.1,933.8 1011.1,923.7 				"/>
			</g>
			<g>
				<g>
					<polygon class="st30" points="1066.7,848.7 1066.7,909.4 1011.1,877.3 1011.1,816.7 					"/>
					<polygon class="st31" points="1066.7,848.7 1066.7,909.4 1154.5,858.7 1154.5,798 					"/>
					<polygon class="st32" points="1011.1,816.7 1066.7,848.7 1154.5,798 1098.9,766 					"/>
				</g>
				<polygon class="st0" points="1066.7,890.5 1066.7,900.5 1154.5,849.8 1154.5,839.7 				"/>
				<polygon class="st1" points="1066.7,890.5 1066.7,900.5 1011.1,868.5 1011.1,858.4 				"/>
			</g>
			<g>
				<g>
					<polygon class="st30" points="1127.8,949.4 1127.8,1010.1 1072.2,978 1072.2,917.3 					"/>
					<polygon class="st31" points="1127.8,949.4 1127.8,1010.1 1215.6,959.4 1215.6,898.7 					"/>
					<polygon class="st32" points="1072.2,917.3 1127.8,949.4 1215.6,898.7 1160,866.6 					"/>
				</g>
				<polygon class="st0" points="1127.8,991.1 1127.8,1001.2 1215.6,950.5 1215.6,940.4 				"/>
				<polygon class="st1" points="1127.8,991.1 1127.8,1001.2 1072.2,969.1 1072.2,959 				"/>
			</g>
		</g>
	</g>
	<g>
		<g>
			<polygon class="st0" points="402,980.3 469.9,989.7 437.1,944.8 396.8,953.6 			"/>
			<g>
				<g>
					<path class="st26" d="M474,1058.5c0.1-0.1,0.2-0.2,0.3-0.3c0.3-0.2,0.6-0.5,0.9-0.8c0,0,0.1-0.1,0.1-0.1c0.3-0.3,0.6-0.6,0.9-1
						c0.1-0.1,0.2-0.2,0.3-0.3c0.2-0.3,0.4-0.5,0.6-0.8c0.1-0.1,0.2-0.2,0.3-0.4c0.2-0.3,0.4-0.6,0.6-0.9c0.1-0.1,0.1-0.2,0.2-0.3
						c0.3-0.4,0.5-0.9,0.8-1.3c0.3-0.5,0.5-0.9,0.7-1.4c0-0.1,0.1-0.2,0.1-0.2c0.2-0.4,0.3-0.8,0.5-1.2c0-0.1,0.1-0.2,0.1-0.4
						c0.1-0.2,0.2-0.5,0.3-0.7c0.1-0.4,0.3-0.8,0.4-1.2c0.1-0.3,0.2-0.5,0.2-0.8c0.1-0.3,0.2-0.7,0.3-1c0.1-0.3,0.1-0.6,0.2-0.9
						c0.1-0.3,0.1-0.6,0.2-0.9c0.1-0.3,0.1-0.7,0.2-1c0-0.3,0.1-0.5,0.1-0.8c0.1-0.4,0.1-0.8,0.1-1.1c0-0.3,0.1-0.5,0.1-0.8
						c0-0.5,0.1-0.9,0.1-1.4c0-0.2,0-0.4,0-0.6c0-0.7,0-1.4,0.1-2.1c0-0.7,0-1.3,0-2c0-0.2,0-0.5,0-0.7c0-0.5-0.1-1-0.1-1.4
						c0-0.2,0-0.5-0.1-0.7c0-0.5-0.1-1-0.2-1.5c0-0.2,0-0.4-0.1-0.6c-0.1-0.7-0.2-1.4-0.3-2.1c0-0.1,0-0.2,0-0.3
						c-0.1-0.6-0.2-1.2-0.3-1.9c0-0.3-0.1-0.5-0.2-0.8c-0.1-0.5-0.2-1-0.3-1.4c-0.1-0.3-0.1-0.5-0.2-0.8c-0.1-0.5-0.2-0.9-0.3-1.4
						c-0.1-0.3-0.1-0.6-0.2-0.8c-0.1-0.5-0.3-1-0.4-1.5c-0.1-0.2-0.1-0.5-0.2-0.7c-0.2-0.7-0.4-1.4-0.7-2.2c0-0.1,0-0.1-0.1-0.2
						c-0.2-0.7-0.5-1.3-0.7-2c-0.1-0.2-0.2-0.4-0.2-0.6c-0.2-0.5-0.4-1-0.6-1.5c-0.1-0.2-0.2-0.5-0.3-0.7c-0.2-0.5-0.4-1-0.7-1.6
						c-0.1-0.2-0.2-0.4-0.2-0.6c-0.3-0.7-0.6-1.4-1-2.1c-0.1-0.2-0.2-0.3-0.3-0.5c-0.3-0.5-0.5-1.1-0.8-1.6
						c-0.2-0.4-0.4-0.8-0.6-1.1c-0.2-0.4-0.4-0.7-0.6-1.1c-0.5-1-1.1-1.9-1.6-2.9c-0.2-0.3-0.4-0.6-0.6-1c-0.2-0.4-0.5-0.8-0.7-1.2
						c-0.2-0.3-0.4-0.7-0.7-1c-0.2-0.4-0.5-0.8-0.7-1.1c-0.2-0.2-0.3-0.5-0.5-0.7c-0.7-1-1.4-2.1-2.1-3c0,0,0,0,0,0
						c-0.5-0.7-1-1.4-1.6-2.1c-0.4-0.5-0.8-1-1.3-1.6c-0.1-0.1-0.2-0.2-0.2-0.3c-0.5-0.6-1-1.2-1.5-1.8c-0.1-0.2-0.3-0.3-0.5-0.5
						c-0.4-0.4-0.7-0.8-1.1-1.2c-0.2-0.2-0.4-0.5-0.7-0.7c-0.3-0.3-0.7-0.7-1-1c-0.2-0.2-0.5-0.5-0.7-0.7c-0.3-0.3-0.6-0.6-1-0.9
						c-0.3-0.2-0.5-0.5-0.8-0.7c-0.3-0.3-0.6-0.6-1-0.9c-0.3-0.2-0.5-0.5-0.8-0.7c-0.3-0.3-0.7-0.6-1-0.8c-0.3-0.2-0.5-0.4-0.8-0.6
						c-0.3-0.3-0.7-0.6-1-0.8c-0.2-0.2-0.5-0.4-0.7-0.5c-0.4-0.3-0.8-0.6-1.2-0.8c-0.2-0.1-0.4-0.3-0.6-0.4
						c-0.6-0.4-1.2-0.8-1.8-1.2c0,0-0.1,0-0.1-0.1c-0.6-0.4-1.2-0.8-1.8-1.1c-0.6-0.3-1.1-0.6-1.6-0.9c-0.2-0.1-0.4-0.2-0.6-0.3
						c-0.4-0.2-0.8-0.4-1.2-0.6c-0.2-0.1-0.4-0.2-0.5-0.3c-0.6-0.3-1.2-0.5-1.7-0.7c-0.6-0.2-1.1-0.4-1.7-0.6
						c-0.2-0.1-0.4-0.1-0.5-0.2c-0.4-0.1-0.8-0.2-1.1-0.4c-0.2-0.1-0.4-0.1-0.7-0.2c-0.4-0.1-0.7-0.2-1-0.3
						c-0.2-0.1-0.4-0.1-0.7-0.1c-0.3-0.1-0.6-0.1-1-0.2c-0.3,0-0.5-0.1-0.8-0.1c-0.3,0-0.6-0.1-0.9-0.1c-0.3,0-0.5-0.1-0.8-0.1
						c-0.3,0-0.5,0-0.8,0c-0.3,0-0.6,0-1,0c-0.4,0-0.9,0-1.3,0c0,0-0.1,0-0.1,0c-0.4,0-0.8,0.1-1.3,0.1c-0.1,0-0.2,0-0.4,0
						c-0.5,0.1-0.9,0.1-1.4,0.2c-0.1,0-0.2,0.1-0.4,0.1c-0.4,0.1-0.7,0.2-1.1,0.3c-0.2,0-0.3,0.1-0.5,0.2c-0.3,0.1-0.6,0.2-0.8,0.3
						c-0.3,0.1-0.7,0.3-1,0.4c-0.2,0.1-0.3,0.1-0.5,0.2c-0.5,0.2-1,0.5-1.4,0.7c0,0,35.9-20.9,36-20.9c0.5-0.3,0.9-0.5,1.4-0.7
						c0.2-0.1,0.3-0.1,0.5-0.2c5.3-2.3,11.5-1.8,16.8,0c5.4,1.8,10.5,4.8,15,8.3c0.1,0.1,0.3,0.2,0.4,0.3c0.3,0.2,0.5,0.4,0.8,0.6
						c16.2,13.4,27.8,34.4,29.3,55.5c0.5,7.2-0.3,15.5-4.2,21.8c0,0,0,0-0.1,0.1c-0.1,0.1-0.1,0.2-0.2,0.3c-0.2,0.3-0.4,0.6-0.6,0.9
						c-0.1,0.1-0.2,0.2-0.3,0.4c-0.2,0.3-0.4,0.5-0.6,0.8c-0.1,0.1-0.2,0.2-0.3,0.3c-0.3,0.3-0.6,0.7-0.9,1c0,0-0.1,0.1-0.1,0.1
						c-0.3,0.3-0.6,0.5-0.9,0.8c-0.1,0.1-0.2,0.2-0.3,0.3c-0.3,0.2-0.5,0.4-0.8,0.6c-0.1,0.1-0.2,0.2-0.3,0.2
						c-0.4,0.3-0.7,0.5-1.1,0.7l-35.9,20.9c0.4-0.2,0.8-0.5,1.1-0.7c0.1-0.1,0.2-0.2,0.3-0.2C473.5,1058.9,473.7,1058.7,474,1058.5z
						"/>
					<g>
						<g>
							<path class="st25" d="M445.2,970.8c20.8,12,37.6,41.1,37.6,65.1c-0.1,23.9-17,33.6-37.8,21.5c-20.8-12-37.6-41.1-37.6-65.1
								C407.5,968.4,424.4,958.7,445.2,970.8z"/>
						</g>
					</g>
				</g>
				<g>
					<g>
						<path class="st1" d="M443.9,987.6c12.8,7.4,23.4,24.8,24.5,39.9c0.1,0.9,0.1,1.8,0.1,2.7c0,15.7-11.1,22-24.8,14.1
							c-13.6-7.9-24.6-26.9-24.6-42.6c0-0.9,0-1.8,0.1-2.6C420.5,985.3,431.1,980.1,443.9,987.6z"/>
					</g>
					<g>
						<path class="st25" d="M443.9,995.3c9.3,5.4,17,18,17.8,29c0.1,0.7,0.1,1.3,0.1,2c0,11.4-8.1,16-18,10.3
							c-9.9-5.7-17.9-19.6-17.9-31c0-0.7,0-1.3,0.1-1.9C426.9,993.7,434.6,989.9,443.9,995.3z"/>
					</g>
					<path class="st9" d="M426,1003.6c0.7-8.3,6.1-12.3,13.3-10.3c-5.5-0.1-9.5,3.8-10.1,10.8c-0.1,0.6-0.1,1.2-0.1,1.9
						c0,11.4,8,25.3,17.9,31c1.6,0.9,3.2,1.6,4.7,2c-2.4-0.1-5-0.8-7.8-2.5c-9.9-5.7-17.9-19.6-17.9-31
						C425.9,1004.9,425.9,1004.3,426,1003.6z"/>
					<g>
						<path class="st26" d="M437.1,1018.1c-0.5-0.3-1-0.4-1.4-0.1c-0.8,0.4-0.8,1.9,0,3.3c0.4,0.7,0.9,1.2,1.4,1.5
							c0.5,0.3,1,0.4,1.4,0.1c0.8-0.4,0.8-1.9,0-3.3C438.1,1018.9,437.6,1018.4,437.1,1018.1z"/>
						<path class="st26" d="M445,1010.7c-2.5-1.5-4.6-0.3-4.6,2.6c0,2.9,2,6.5,4.6,7.9c2.5,1.5,4.6,0.3,4.6-2.6
							C449.6,1015.7,447.5,1012.1,445,1010.7z"/>
						<path class="st26" d="M444.9,1026.4c-1.1-0.6-2-0.1-2,1.2c0,1.3,0.9,2.8,2,3.5c1.1,0.6,2,0.1,2-1.2
							C447,1028.6,446.1,1027,444.9,1026.4z"/>
						<path class="st26" d="M452.8,1027.2c-0.5-0.3-1-0.4-1.4-0.1c-0.8,0.5-0.8,1.9,0,3.3c0.4,0.7,0.9,1.2,1.4,1.5
							c0.5,0.3,1,0.4,1.4,0.1c0.8-0.5,0.8-1.9,0-3.3C453.9,1028,453.3,1027.5,452.8,1027.2z"/>
						<path class="st26" d="M437.1,1000c-0.5-0.3-1-0.4-1.4-0.1c-0.8,0.4-0.8,1.9,0,3.3c0.4,0.7,0.9,1.2,1.4,1.5
							c0.5,0.3,1,0.4,1.4,0.1c0.8-0.4,0.8-1.9,0-3.3C438.2,1000.8,437.7,1000.3,437.1,1000z"/>
						<path class="st26" d="M445,1005.4c1.1,0.6,2,0.1,2-1.2c0-1.3-0.9-2.8-2-3.5c-1.1-0.6-2-0.1-2,1.2
							C443,1003.2,443.9,1004.8,445,1005.4z"/>
						<path class="st26" d="M452.9,1013.7c0.5,0.3,1,0.4,1.4,0.1c0.8-0.4,0.8-1.9,0-3.3c-0.4-0.7-0.9-1.2-1.4-1.5
							c-0.5-0.3-1-0.4-1.4-0.1c-0.8,0.4-0.8,1.9,0,3.3C451.8,1012.9,452.4,1013.4,452.9,1013.7z"/>
						<path class="st26" d="M435.9,1010.7c0-1.3-0.9-2.8-2-3.5c-1.1-0.6-2-0.1-2,1.2c0,1.3,0.9,2.8,2,3.5
							C435,1012.5,435.9,1011.9,435.9,1010.7z"/>
						<path class="st26" d="M456.1,1020c-1.1-0.6-2-0.1-2,1.2c0,1.3,0.9,2.8,2,3.5c1.1,0.6,2,0.1,2-1.2
							C458.1,1022.2,457.2,1020.7,456.1,1020z"/>
					</g>
				</g>
			</g>
			<polygon class="st26" points="515.9,1053.5 550.6,1028.7 515.9,1008.5 			"/>
			<g>
				<path class="st35" d="M635.9,1065.7c0,0-0.1,0-0.1,0c-0.1,0-0.1-0.1-0.2-0.1c0,0-0.1,0-0.1,0c-0.1,0-0.1,0-0.2-0.1
					c0,0-0.1,0-0.1,0c0,0-0.1,0-0.1,0c-0.1,0-0.1,0-0.2,0c0,0-0.1,0-0.1,0c-0.1,0-0.1,0-0.2,0c0,0-0.1,0-0.1,0c-0.1,0-0.1,0-0.2,0
					c0,0-0.1,0-0.1,0c-0.1,0-0.2,0-0.3,0c0,0,0,0-0.1,0c-0.1,0-0.1,0-0.2,0c0,0,0,0-0.1,0c-0.1,0-0.2,0-0.3,0c-0.1,0-0.2,0-0.3,0
					c0,0-0.1,0-0.1,0c-0.1,0-0.2,0-0.3,0c0,0-0.1,0-0.1,0c-0.1,0-0.1,0-0.2,0c-0.1,0-0.1,0-0.2,0c-0.1,0-0.1,0-0.2,0
					c-0.1,0-0.1,0-0.2,0c-0.1,0-0.1,0-0.2,0c-0.1,0-0.1,0-0.2,0c-0.1,0-0.1,0-0.2,0c-0.1,0-0.1,0-0.2,0c0,0-0.1,0-0.2,0
					c-0.1,0-0.1,0-0.2,0c0,0-0.1,0-0.2,0c-0.1,0-0.1,0-0.2,0c0,0-0.1,0-0.1,0c-0.1,0-0.2,0-0.2,0.1c0,0-0.1,0-0.1,0
					c-0.1,0-0.2,0.1-0.3,0.1c0,0-0.1,0-0.1,0c-0.1,0-0.2,0-0.3,0.1c0,0-0.1,0-0.1,0c-0.1,0-0.2,0-0.2,0.1c0,0-0.1,0-0.1,0
					c-0.1,0-0.2,0.1-0.2,0.1c0,0-0.1,0-0.1,0c-0.1,0-0.2,0.1-0.3,0.1c0,0,0,0-0.1,0c-0.1,0-0.2,0.1-0.3,0.1c0,0-0.1,0-0.1,0
					c-0.1,0-0.2,0.1-0.2,0.1c0,0-0.1,0-0.1,0.1c-0.1,0-0.2,0.1-0.2,0.1c0,0-0.1,0-0.1,0.1c-0.1,0.1-0.2,0.1-0.3,0.2l0,0
					c-0.1,0.1-0.2,0.1-0.3,0.2c0,0,0,0-0.1,0c-0.1,0.1-0.2,0.1-0.3,0.2l-74.2-43.2c0.1-0.1,0.2-0.1,0.3-0.2c0,0,0,0,0.1,0
					c0,0,0,0,0.1,0c0.1-0.1,0.2-0.1,0.3-0.2l0,0c0.1-0.1,0.2-0.1,0.3-0.2c0,0,0,0,0,0c0,0,0.1,0,0.1-0.1c0.1,0,0.2-0.1,0.2-0.1
					c0,0,0.1,0,0.1-0.1c0,0,0.1,0,0.1,0c0.1,0,0.1,0,0.2-0.1c0,0,0.1,0,0.1,0c0.1,0,0.2-0.1,0.3-0.1l0,0c0,0,0,0,0.1,0
					c0.1,0,0.2-0.1,0.3-0.1c0,0,0.1,0,0.1,0c0,0,0.1,0,0.1,0c0,0,0.1,0,0.1,0c0,0,0.1,0,0.1,0c0.1,0,0.2,0,0.2-0.1c0,0,0.1,0,0.1,0
					c0,0,0,0,0,0c0.1,0,0.1,0,0.2-0.1c0,0,0.1,0,0.1,0c0.1,0,0.2-0.1,0.3-0.1l0,0c0,0,0.1,0,0.1,0c0.1,0,0.2,0,0.2-0.1
					c0,0,0.1,0,0.1,0c0,0,0.1,0,0.1,0c0,0,0,0,0.1,0c0.1,0,0.1,0,0.2,0c0.1,0,0.1,0,0.2,0c0.1,0,0.1,0,0.2,0c0,0,0.1,0,0.1,0
					c0,0,0.1,0,0.1,0c0.1,0,0.1,0,0.2,0c0.1,0,0.1,0,0.2,0c0.1,0,0.1,0,0.2,0c0,0,0.1,0,0.1,0c0.1,0,0.1,0,0.1,0c0.1,0,0.2,0,0.2,0
					c0.1,0,0.1,0,0.2,0c0.1,0,0.1,0,0.2,0c0,0,0.1,0,0.1,0l0.1,0c0.1,0,0.2,0,0.3,0c0,0,0.1,0,0.1,0c0.1,0,0.2,0,0.3,0l0,0
					c0.1,0,0.2,0,0.3,0c0,0,0,0,0.1,0c0.1,0,0.1,0,0.2,0c0,0,0,0,0.1,0c0.1,0,0.2,0,0.2,0l0,0c0,0,0.1,0,0.1,0c0.1,0,0.1,0,0.2,0
					c0,0,0.1,0,0.1,0c0.1,0,0.1,0,0.2,0c0,0,0.1,0,0.1,0c0.1,0,0.1,0,0.2,0c0,0,0.1,0,0.1,0c0,0,0,0,0.1,0c0,0,0,0,0.1,0
					c0.1,0,0.1,0,0.2,0.1c0,0,0.1,0,0.1,0c0.1,0,0.1,0.1,0.2,0.1c0,0,0.1,0,0.1,0.1c0.1,0,0.1,0.1,0.2,0.1c0,0,0.1,0,0.1,0
					c0.1,0,0.2,0.1,0.3,0.1l0,0l74.2,43.2c-0.1-0.1-0.2-0.1-0.3-0.2c0,0-0.1,0-0.1,0C636.1,1065.7,636,1065.7,635.9,1065.7z"/>
				<g>
					<polygon class="st1" points="626,1067 551.9,1023.8 542.8,1029 617,1072.2 					"/>
				</g>
				<path class="st1" d="M528.2,1054c0,0,0-0.1,0-0.1c0,0,0-0.1,0-0.1c0,0,0-0.1,0-0.1c0,0,0-0.1,0-0.1c0-0.1,0-0.2,0-0.3
					c0,0,0-0.1,0-0.1c0,0,0,0,0,0c0-0.1,0-0.3,0-0.4c0,0,0-0.1,0-0.1c0-0.1,0-0.1,0-0.2c0,0,0-0.1,0-0.1c0,0,0-0.1,0-0.1
					c0-0.1,0-0.2,0-0.3c0,0,0-0.1,0-0.1c0,0,0,0,0-0.1c0-0.1,0-0.2,0-0.3c0,0,0-0.1,0-0.1c0-0.1,0-0.3,0.1-0.4c0,0,0,0,0,0
					c0,0,0-0.1,0-0.1c0-0.1,0-0.2,0.1-0.3c0,0,0-0.1,0-0.1c0,0,0-0.1,0-0.1c0,0,0-0.1,0-0.1c0-0.1,0-0.1,0-0.2c0-0.1,0-0.2,0.1-0.3
					c0,0,0-0.1,0-0.1c0,0,0,0,0,0c0-0.1,0.1-0.2,0.1-0.3c0,0,0,0,0,0c0-0.1,0.1-0.3,0.1-0.4c0,0,0,0,0,0c0,0,0-0.1,0-0.1
					c0-0.1,0-0.2,0.1-0.3c0-0.1,0-0.1,0-0.2c0-0.1,0-0.1,0-0.2c0,0,0-0.1,0-0.1c0-0.1,0-0.1,0-0.2c0-0.1,0.1-0.2,0.1-0.3
					c0-0.1,0-0.1,0-0.2c0,0,0,0,0-0.1c0-0.1,0.1-0.2,0.1-0.3c0,0,0-0.1,0-0.1c0-0.1,0.1-0.3,0.1-0.4c0,0,0,0,0,0c0,0,0-0.1,0-0.1
					c0-0.1,0.1-0.2,0.1-0.3c0,0,0-0.1,0.1-0.1c0-0.1,0-0.1,0.1-0.2c0,0,0-0.1,0-0.1c0,0,0-0.1,0.1-0.1c0-0.1,0.1-0.2,0.1-0.3
					c0,0,0-0.1,0-0.1c0,0,0,0,0,0c0.1-0.1,0.1-0.3,0.2-0.4c0,0,0-0.1,0-0.1c0-0.1,0.1-0.2,0.1-0.2c0,0,0,0,0,0
					c0.1-0.2,0.2-0.4,0.3-0.6c0,0,0,0,0,0c0,0,0-0.1,0-0.1c0.1-0.2,0.2-0.4,0.3-0.6c0,0,0,0,0-0.1c0,0,0,0,0,0c0,0,0-0.1,0.1-0.1
					c0-0.1,0.1-0.2,0.1-0.3c0-0.1,0.1-0.1,0.1-0.2c0-0.1,0-0.1,0.1-0.2c0,0,0-0.1,0-0.1c0-0.1,0.1-0.1,0.1-0.2
					c0-0.1,0.1-0.1,0.1-0.2c0-0.1,0.1-0.1,0.1-0.2c0,0,0-0.1,0.1-0.1c0,0,0,0,0-0.1c0.1-0.2,0.2-0.4,0.3-0.6c0,0,0,0,0-0.1
					c0.1-0.2,0.2-0.3,0.3-0.5c0,0,0-0.1,0-0.1c0,0,0-0.1,0.1-0.1c0-0.1,0.1-0.2,0.1-0.2c0-0.1,0.1-0.1,0.1-0.2
					c0-0.1,0.1-0.2,0.1-0.2c0-0.1,0.1-0.1,0.1-0.2c0-0.1,0.1-0.2,0.1-0.2c0-0.1,0.1-0.1,0.1-0.2c0.1-0.1,0.1-0.2,0.2-0.2
					c0,0,0.1-0.1,0.1-0.1c0,0,0,0,0,0c0.1-0.2,0.3-0.4,0.4-0.6c0,0,0.1-0.1,0.1-0.1c0.1-0.2,0.3-0.4,0.4-0.6l0,0c0,0,0-0.1,0.1-0.1
					c0.1-0.1,0.2-0.2,0.2-0.3c0-0.1,0.1-0.1,0.1-0.2c0.1-0.1,0.1-0.2,0.2-0.3c0,0,0,0,0,0c0-0.1,0.1-0.1,0.1-0.2
					c0-0.1,0.1-0.1,0.1-0.2c0.1-0.1,0.1-0.2,0.2-0.2c0,0,0.1-0.1,0.1-0.1c0,0,0,0,0,0c0.1-0.1,0.2-0.2,0.3-0.3l0,0
					c0.1-0.1,0.2-0.2,0.3-0.3l0,0c0,0,0.1-0.1,0.1-0.1c0.1-0.1,0.1-0.2,0.2-0.2c0,0,0.1-0.1,0.1-0.1c0,0,0.1-0.1,0.1-0.1
					c0,0,0,0,0.1-0.1c0,0,0.1-0.1,0.1-0.1c0.1-0.1,0.1-0.1,0.2-0.2c0,0,0.1-0.1,0.1-0.1c0,0,0.1-0.1,0.1-0.1c0,0,0.1-0.1,0.1-0.1
					c0,0,0.1-0.1,0.1-0.1c0.1-0.1,0.1-0.1,0.2-0.2c0,0,0.1-0.1,0.1-0.1c0,0,0,0,0.1-0.1c0,0,0.1-0.1,0.1-0.1c0,0,0.1-0.1,0.1-0.1
					c0.1-0.1,0.1-0.1,0.2-0.2c0,0,0.1-0.1,0.1-0.1c0,0,0,0,0,0c0.1-0.1,0.1-0.1,0.2-0.2c0,0,0.1-0.1,0.1-0.1
					c0.1-0.1,0.2-0.2,0.3-0.2c0,0,0,0,0.1-0.1l0,0c0.1-0.1,0.2-0.2,0.3-0.3c0,0,0.1-0.1,0.1-0.1c0.1-0.1,0.1-0.1,0.2-0.2
					c0,0,0,0,0,0c0,0,0.1-0.1,0.1-0.1c0.1-0.1,0.1-0.1,0.2-0.2c0,0,0.1-0.1,0.1-0.1c0,0,0.1-0.1,0.1-0.1c0,0,0.1,0,0.1-0.1
					c0,0,0.1-0.1,0.1-0.1c0.1-0.1,0.1-0.1,0.2-0.2c0,0,0.1-0.1,0.1-0.1c0,0,0,0,0.1,0c0.1,0,0.1-0.1,0.2-0.1c0,0,0.1,0,0.1-0.1
					c0.1-0.1,0.2-0.2,0.3-0.2l0,0c0,0,0,0,0,0c0.1-0.1,0.2-0.1,0.3-0.2c0,0,0.1,0,0.1-0.1c0.1,0,0.1-0.1,0.2-0.1
					c0,0,0.1-0.1,0.1-0.1l74.2,43.2c-0.1,0.1-0.2,0.1-0.3,0.2c0,0-0.1,0-0.1,0.1c-0.1,0.1-0.2,0.1-0.3,0.2l0,0
					c-0.1,0.1-0.2,0.1-0.3,0.2c0,0-0.1,0-0.1,0.1c-0.1,0.1-0.2,0.1-0.2,0.2c0,0-0.1,0.1-0.1,0.1c-0.1,0.1-0.1,0.1-0.2,0.2
					c0,0-0.1,0.1-0.1,0.1c-0.1,0.1-0.1,0.1-0.2,0.2c0,0-0.1,0.1-0.1,0.1c-0.1,0.1-0.1,0.1-0.2,0.2c0,0-0.1,0.1-0.1,0.1
					c-0.1,0.1-0.2,0.1-0.2,0.2c0,0-0.1,0.1-0.1,0.1c-0.1,0.1-0.2,0.2-0.3,0.3c0,0,0,0-0.1,0.1c-0.1,0.1-0.2,0.2-0.3,0.2
					c0,0-0.1,0.1-0.1,0.1c-0.1,0.1-0.1,0.1-0.2,0.2c0,0-0.1,0.1-0.1,0.1c-0.1,0.1-0.1,0.1-0.2,0.2c0,0-0.1,0.1-0.1,0.1
					c-0.1,0.1-0.1,0.1-0.2,0.2c0,0-0.1,0.1-0.1,0.1c-0.1,0.1-0.1,0.1-0.2,0.2c0,0-0.1,0.1-0.1,0.1c-0.1,0.1-0.1,0.1-0.2,0.2
					c0,0-0.1,0.1-0.1,0.1c-0.1,0.1-0.1,0.1-0.2,0.2c0,0-0.1,0.1-0.1,0.1c-0.1,0.1-0.1,0.1-0.2,0.2c0,0-0.1,0.1-0.1,0.1
					c-0.1,0.1-0.1,0.2-0.2,0.2c0,0-0.1,0.1-0.1,0.1c-0.1,0.1-0.2,0.2-0.3,0.3l0,0c-0.1,0.1-0.2,0.2-0.3,0.4c0,0-0.1,0.1-0.1,0.1
					c-0.1,0.1-0.1,0.2-0.2,0.2c0,0-0.1,0.1-0.1,0.2c-0.1,0.1-0.1,0.1-0.2,0.2c-0.1,0.1-0.1,0.2-0.2,0.3c0,0.1-0.1,0.1-0.1,0.2
					c-0.1,0.1-0.2,0.2-0.2,0.3c0,0-0.1,0.1-0.1,0.1c-0.1,0.2-0.3,0.4-0.4,0.6c0,0-0.1,0.1-0.1,0.1c-0.1,0.2-0.3,0.4-0.4,0.6
					c0,0.1-0.1,0.1-0.1,0.2c-0.1,0.1-0.1,0.2-0.2,0.2c0,0.1-0.1,0.1-0.1,0.2c0,0.1-0.1,0.2-0.1,0.2c0,0.1-0.1,0.1-0.1,0.2
					c0,0.1-0.1,0.2-0.1,0.2c0,0.1-0.1,0.1-0.1,0.2c0,0.1-0.1,0.2-0.1,0.2c0,0.1-0.1,0.1-0.1,0.2c-0.1,0.2-0.2,0.3-0.3,0.5
					c0,0,0,0,0,0.1c-0.1,0.2-0.2,0.4-0.3,0.6c0,0.1-0.1,0.1-0.1,0.2c0,0.1-0.1,0.1-0.1,0.2c0,0.1-0.1,0.1-0.1,0.2
					c0,0.1-0.1,0.1-0.1,0.2c0,0.1-0.1,0.2-0.1,0.2c0,0.1-0.1,0.1-0.1,0.2c0,0.1-0.1,0.2-0.1,0.3c0,0,0,0.1-0.1,0.1c0,0,0,0.1,0,0.1
					c-0.1,0.2-0.2,0.4-0.3,0.6c0,0,0,0.1-0.1,0.1c-0.1,0.2-0.2,0.4-0.3,0.6c0,0.1-0.1,0.2-0.1,0.3c0,0,0,0.1,0,0.1
					c-0.1,0.1-0.1,0.3-0.2,0.4c0,0,0,0.1,0,0.1c0,0.1-0.1,0.2-0.1,0.3c0,0,0,0.1-0.1,0.1c0,0.1-0.1,0.2-0.1,0.3c0,0,0,0.1-0.1,0.1
					c0,0.1-0.1,0.2-0.1,0.3c0,0,0,0.1,0,0.1c0,0.1-0.1,0.3-0.1,0.4c0,0,0,0.1,0,0.1c0,0.1-0.1,0.2-0.1,0.3c0,0.1,0,0.1,0,0.2
					c0,0.1-0.1,0.2-0.1,0.3c0,0.1,0,0.1,0,0.2c0,0.1-0.1,0.2-0.1,0.3c0,0.1,0,0.1,0,0.2c0,0.1-0.1,0.2-0.1,0.3c0,0,0,0.1,0,0.1
					c0,0.1-0.1,0.3-0.1,0.4c0,0,0,0,0,0c0,0.1-0.1,0.3-0.1,0.4c0,0,0,0.1,0,0.1c0,0.1,0,0.2-0.1,0.3c0,0.1,0,0.1,0,0.2
					c0,0.1,0,0.2-0.1,0.3c0,0,0,0.1,0,0.1c0,0.1,0,0.2-0.1,0.3c0,0,0,0.1,0,0.1c0,0.1,0,0.3-0.1,0.4c0,0,0,0.1,0,0.1
					c0,0.1,0,0.2,0,0.3c0,0,0,0.1,0,0.1c0,0.1,0,0.2,0,0.3c0,0,0,0.1,0,0.1c0,0.1,0,0.2,0,0.3c0,0,0,0.1,0,0.1c0,0.1,0,0.3,0,0.4
					c0,0,0,0.1,0,0.1c0,0.1,0,0.2,0,0.3c0,0,0,0.1,0,0.1c0,0.1,0,0.2,0,0.3c0,0,0,0.1,0,0.1c0,0.1,0,0.3,0,0.4c0,0.1,0,0.3,0,0.4
					c0,0,0,0.1,0,0.1c0,0.1,0,0.2,0,0.3c0,0,0,0.1,0,0.1c0,0.1,0,0.2,0,0.3c0,0,0,0.1,0,0.1c0,0.1,0,0.2,0,0.2c0,0.1,0,0.1,0,0.2
					c0,0.1,0,0.2,0,0.2c0,0,0,0.1,0,0.1c0,0.1,0,0.2,0,0.3c0,0,0,0.1,0,0.1c0,0.1,0,0.2,0.1,0.4c0,0,0,0,0,0.1c0,0.1,0,0.2,0.1,0.3
					c0,0,0,0.1,0,0.1c0,0.1,0,0.2,0,0.2c0,0.1,0.1,0.2,0.1,0.4c0,0,0,0,0,0c0,0.1,0.1,0.2,0.1,0.3c0,0,0,0.1,0,0.1
					c0,0.1,0.1,0.2,0.1,0.3c0,0,0,0.1,0,0.1c0,0.1,0.1,0.2,0.1,0.2c0,0,0,0.1,0,0.1c0,0.1,0.1,0.2,0.1,0.3c0,0,0,0.1,0,0.1
					c0.1,0.1,0.1,0.2,0.2,0.4c0,0.1,0.1,0.2,0.1,0.2c0,0,0,0,0,0c0,0.1,0.1,0.2,0.1,0.3c0,0,0,0.1,0,0.1c0,0.1,0.1,0.1,0.1,0.2
					c0,0,0,0.1,0.1,0.1c0,0.1,0.1,0.1,0.1,0.2c0,0,0,0,0,0.1c0,0.1,0.1,0.1,0.1,0.2c0,0,0,0,0,0.1c0,0.1,0.1,0.1,0.1,0.2l0,0
					c0.1,0.1,0.1,0.1,0.2,0.2c0,0,0,0,0.1,0.1c0,0.1,0.1,0.1,0.1,0.1c0,0,0,0,0.1,0.1c0,0.1,0.1,0.1,0.1,0.2c0,0,0,0,0,0
					c0.1,0.1,0.1,0.1,0.2,0.2c0,0,0,0,0,0c0,0,0.1,0.1,0.1,0.1c0,0,0,0,0.1,0.1c0,0,0.1,0.1,0.1,0.1c0,0,0,0,0.1,0
					c0.1,0.1,0.1,0.1,0.2,0.2c0,0,0,0,0,0c0.1,0,0.1,0.1,0.2,0.1c0,0,0,0,0.1,0c0.1,0,0.1,0.1,0.2,0.1c0,0,0,0,0.1,0
					c0.1,0,0.1,0.1,0.2,0.1l0,0l-74.2-43.2c-0.1,0-0.1-0.1-0.2-0.1c0,0,0,0-0.1,0c-0.1,0-0.1-0.1-0.2-0.1c0,0,0,0-0.1,0
					c-0.1,0-0.1-0.1-0.2-0.1c0,0,0,0,0,0c-0.1-0.1-0.1-0.1-0.2-0.2c0,0,0,0-0.1,0c-0.1,0-0.1-0.1-0.1-0.1c0,0,0,0-0.1-0.1
					c0,0-0.1-0.1-0.1-0.1c0,0,0,0,0,0c-0.1-0.1-0.1-0.1-0.2-0.2c0,0,0,0,0,0c0-0.1-0.1-0.1-0.1-0.2c0,0,0,0-0.1-0.1
					c0,0-0.1-0.1-0.1-0.2c0,0,0,0-0.1-0.1c-0.1-0.1-0.1-0.1-0.2-0.2c0,0,0,0,0,0c0-0.1-0.1-0.1-0.1-0.2c0,0,0,0-0.1-0.1
					c0-0.1-0.1-0.1-0.1-0.2c0,0,0,0,0-0.1c0,0,0,0,0,0c0,0,0-0.1-0.1-0.1c0,0,0-0.1-0.1-0.1c0-0.1-0.1-0.1-0.1-0.2c0,0,0-0.1,0-0.1
					c0-0.1-0.1-0.2-0.1-0.3c0,0,0,0,0-0.1c0-0.1-0.1-0.1-0.1-0.2l0,0c-0.1-0.1-0.1-0.2-0.2-0.4c0,0,0-0.1,0-0.1
					c0-0.1-0.1-0.2-0.1-0.3c0,0,0,0,0-0.1c0,0,0,0,0-0.1c0-0.1-0.1-0.2-0.1-0.2c0,0,0-0.1,0-0.1c0-0.1-0.1-0.2-0.1-0.3
					c0,0,0-0.1,0-0.1l0,0c0-0.1-0.1-0.2-0.1-0.3c0,0,0,0,0-0.1c0-0.1-0.1-0.2-0.1-0.4l0,0c0-0.1,0-0.1,0-0.2c0,0,0-0.1,0-0.1
					c0-0.1,0-0.2-0.1-0.3c0,0,0,0,0-0.1l0,0c0-0.1,0-0.2-0.1-0.4c0,0,0-0.1,0-0.1c0-0.1,0-0.1,0-0.2c0,0,0,0,0,0c0-0.1,0-0.1,0-0.1
					c0-0.1,0-0.2,0-0.2c0,0,0-0.1,0-0.2c0,0,0-0.1,0-0.1c0,0,0-0.1,0-0.1c0,0,0-0.1,0-0.1c0-0.1,0-0.2,0-0.3c0,0,0-0.1,0-0.1
					c0,0,0,0,0-0.1c0-0.1,0-0.2,0-0.2c0,0,0-0.1,0-0.1c0-0.1,0-0.2,0-0.4c0,0,0,0,0,0C528.2,1054.3,528.2,1054.1,528.2,1054z"/>
				<g>
					<path class="st0" d="M617,1072.2c-8.1,4.7-14.7,16.1-14.7,25.4c0,9.3,6.7,13.1,14.8,8.4l9-5.2c8.1-4.7,14.7-16.1,14.7-25.4
						c0-9.3-6.7-13.1-14.8-8.4L617,1072.2z"/>
				</g>
			</g>
			<polygon class="st1" points="637.7,1079.2 637.7,1110.2 695.4,1142.9 695.4,1112.6 			"/>
			<polygon class="st0" points="695.4,1142.9 706.2,1136.9 706.2,1118.9 695.4,1112.6 			"/>
			<polygon class="st25" points="482.8,989.7 496.5,1042 515.9,1053.5 515.9,1008.8 			"/>
			<g>
				<g>
					<path class="st26" d="M760.3,1224.4c0.1-0.1,0.2-0.2,0.3-0.3c0.3-0.2,0.6-0.5,0.9-0.8c0,0,0.1-0.1,0.1-0.1
						c0.3-0.3,0.6-0.6,0.9-1c0.1-0.1,0.2-0.2,0.3-0.3c0.2-0.3,0.4-0.5,0.6-0.8c0.1-0.1,0.2-0.2,0.3-0.4c0.2-0.3,0.4-0.6,0.6-0.9
						c0.1-0.1,0.1-0.2,0.2-0.3c0.3-0.4,0.5-0.9,0.8-1.3c0.3-0.5,0.5-0.9,0.7-1.4c0-0.1,0.1-0.2,0.1-0.2c0.2-0.4,0.3-0.8,0.5-1.2
						c0-0.1,0.1-0.2,0.1-0.4c0.1-0.2,0.2-0.5,0.3-0.7c0.1-0.4,0.3-0.8,0.4-1.2c0.1-0.3,0.2-0.5,0.2-0.8c0.1-0.3,0.2-0.7,0.3-1
						c0.1-0.3,0.1-0.6,0.2-0.9c0.1-0.3,0.1-0.6,0.2-0.9c0.1-0.3,0.1-0.7,0.2-1c0-0.3,0.1-0.5,0.1-0.8c0.1-0.4,0.1-0.8,0.1-1.1
						c0-0.3,0.1-0.5,0.1-0.8c0-0.5,0.1-0.9,0.1-1.4c0-0.2,0-0.4,0-0.6c0-0.7,0-1.4,0.1-2.1c0-0.7,0-1.3,0-2c0-0.2,0-0.5,0-0.7
						c0-0.5-0.1-1-0.1-1.4c0-0.2,0-0.5-0.1-0.7c0-0.5-0.1-1-0.2-1.5c0-0.2,0-0.4-0.1-0.6c-0.1-0.7-0.2-1.4-0.3-2.1
						c0-0.1,0-0.2,0-0.3c-0.1-0.6-0.2-1.2-0.3-1.9c0-0.3-0.1-0.5-0.2-0.8c-0.1-0.5-0.2-1-0.3-1.4c-0.1-0.3-0.1-0.5-0.2-0.8
						c-0.1-0.5-0.2-0.9-0.3-1.4c-0.1-0.3-0.1-0.6-0.2-0.8c-0.1-0.5-0.3-1-0.4-1.5c-0.1-0.2-0.1-0.5-0.2-0.7
						c-0.2-0.7-0.4-1.4-0.7-2.2c0-0.1,0-0.1-0.1-0.2c-0.2-0.7-0.5-1.3-0.7-2c-0.1-0.2-0.2-0.4-0.2-0.6c-0.2-0.5-0.4-1-0.6-1.5
						c-0.1-0.2-0.2-0.5-0.3-0.7c-0.2-0.5-0.4-1-0.7-1.6c-0.1-0.2-0.2-0.4-0.2-0.6c-0.3-0.7-0.6-1.4-1-2.1c-0.1-0.2-0.2-0.3-0.3-0.5
						c-0.3-0.5-0.5-1.1-0.8-1.6c-0.2-0.4-0.4-0.8-0.6-1.1c-0.2-0.4-0.4-0.7-0.6-1.1c-0.5-1-1.1-1.9-1.6-2.9c-0.2-0.3-0.4-0.6-0.6-1
						c-0.2-0.4-0.5-0.8-0.7-1.2c-0.2-0.3-0.4-0.7-0.7-1c-0.2-0.4-0.5-0.8-0.7-1.1c-0.2-0.2-0.3-0.5-0.5-0.7c-0.7-1-1.4-2.1-2.1-3
						c0,0,0,0,0,0c-0.5-0.7-1-1.4-1.6-2.1c-0.4-0.5-0.8-1-1.3-1.6c-0.1-0.1-0.2-0.2-0.2-0.3c-0.5-0.6-1-1.2-1.5-1.8
						c-0.1-0.2-0.3-0.3-0.5-0.5c-0.4-0.4-0.7-0.8-1.1-1.2c-0.2-0.2-0.4-0.5-0.7-0.7c-0.3-0.3-0.7-0.7-1-1c-0.2-0.2-0.5-0.5-0.7-0.7
						c-0.3-0.3-0.6-0.6-1-0.9c-0.3-0.2-0.5-0.5-0.8-0.7c-0.3-0.3-0.6-0.6-1-0.9c-0.3-0.2-0.5-0.5-0.8-0.7c-0.3-0.3-0.7-0.6-1-0.8
						c-0.3-0.2-0.5-0.4-0.8-0.6c-0.3-0.3-0.7-0.6-1-0.8c-0.2-0.2-0.5-0.4-0.7-0.5c-0.4-0.3-0.8-0.6-1.2-0.8
						c-0.2-0.1-0.4-0.3-0.6-0.4c-0.6-0.4-1.2-0.8-1.8-1.2c0,0-0.1,0-0.1-0.1c-0.6-0.4-1.2-0.8-1.8-1.1c-0.6-0.3-1.1-0.6-1.6-0.9
						c-0.2-0.1-0.4-0.2-0.6-0.3c-0.4-0.2-0.8-0.4-1.2-0.6c-0.2-0.1-0.4-0.2-0.5-0.3c-0.6-0.3-1.2-0.5-1.7-0.7
						c-0.6-0.2-1.1-0.4-1.7-0.6c-0.2-0.1-0.4-0.1-0.5-0.2c-0.4-0.1-0.8-0.2-1.1-0.4c-0.2-0.1-0.4-0.1-0.7-0.2
						c-0.4-0.1-0.7-0.2-1-0.3c-0.2-0.1-0.4-0.1-0.7-0.1c-0.3-0.1-0.6-0.1-1-0.2c-0.3,0-0.5-0.1-0.8-0.1c-0.3,0-0.6-0.1-0.9-0.1
						c-0.3,0-0.5-0.1-0.8-0.1c-0.3,0-0.5,0-0.8,0c-0.3,0-0.6,0-1,0c-0.4,0-0.9,0-1.3,0c0,0-0.1,0-0.1,0c-0.4,0-0.8,0.1-1.3,0.1
						c-0.1,0-0.2,0-0.4,0c-0.5,0.1-0.9,0.1-1.4,0.2c-0.1,0-0.2,0.1-0.4,0.1c-0.4,0.1-0.7,0.2-1.1,0.3c-0.2,0-0.3,0.1-0.5,0.2
						c-0.3,0.1-0.6,0.2-0.8,0.3c-0.3,0.1-0.7,0.3-1,0.4c-0.2,0.1-0.3,0.1-0.5,0.2c-0.5,0.2-1,0.5-1.4,0.7l36-20.9
						c0.5-0.3,0.9-0.5,1.4-0.7c0.2-0.1,0.3-0.1,0.5-0.2c5.3-2.3,11.5-1.8,16.8,0c5.4,1.8,10.5,4.8,15,8.3c0.1,0.1,0.3,0.2,0.4,0.3
						c0.3,0.2,0.5,0.4,0.8,0.6c16.2,13.4,27.8,34.4,29.3,55.5c0.5,7.2-0.3,15.5-4.2,21.8c0,0,0,0-0.1,0.1c-0.1,0.1-0.1,0.2-0.2,0.3
						c-0.2,0.3-0.4,0.6-0.6,0.9c-0.1,0.1-0.2,0.2-0.3,0.4c-0.2,0.3-0.4,0.5-0.6,0.8c-0.1,0.1-0.2,0.2-0.3,0.3
						c-0.3,0.3-0.6,0.7-0.9,1c0,0-0.1,0.1-0.1,0.1c-0.3,0.3-0.6,0.5-0.9,0.8c-0.1,0.1-0.2,0.2-0.3,0.3c-0.3,0.2-0.5,0.4-0.8,0.6
						c-0.1,0.1-0.2,0.2-0.3,0.2c-0.4,0.2-0.7,0.5-1.1,0.7l-35.9,20.9c0.4-0.2,0.8-0.5,1.1-0.7c0.1-0.1,0.2-0.2,0.3-0.2
						C759.8,1224.8,760.1,1224.6,760.3,1224.4z"/>
					<g>
						<g>
							<path class="st25" d="M731.5,1136.7c20.8,12,37.6,41.1,37.6,65.1c-0.1,23.9-17,33.6-37.8,21.5c-20.8-12-37.6-41.1-37.6-65.1
								C693.8,1134.3,710.7,1124.6,731.5,1136.7z"/>
						</g>
					</g>
				</g>
				<g>
					<g>
						<path class="st1" d="M730.3,1153.5c12.8,7.4,23.4,24.8,24.5,39.9c0.1,0.9,0.1,1.8,0.1,2.7c0,15.7-11.1,22-24.8,14.1
							c-13.6-7.9-24.6-26.9-24.6-42.6c0-0.9,0-1.8,0.1-2.6C706.8,1151.2,717.4,1146.1,730.3,1153.5z"/>
					</g>
					<g>
						<path class="st25" d="M730.2,1161.2c9.3,5.4,17,18,17.8,29c0.1,0.7,0.1,1.3,0.1,2c0,11.4-8.1,16-18,10.3
							c-9.9-5.7-17.9-19.6-17.9-31c0-0.7,0-1.3,0.1-1.9C713.2,1159.6,720.9,1155.8,730.2,1161.2z"/>
					</g>
					<path class="st9" d="M712.3,1169.6c0.7-8.3,6.1-12.3,13.3-10.3c-5.5-0.1-9.5,3.8-10.1,10.8c-0.1,0.6-0.1,1.2-0.1,1.9
						c0,11.4,8,25.3,17.9,31c1.6,0.9,3.2,1.6,4.7,2c-2.4-0.1-5-0.8-7.8-2.5c-9.9-5.7-17.9-19.6-17.9-31
						C712.2,1170.8,712.3,1170.2,712.3,1169.6z"/>
					<g>
						<path class="st26" d="M723.4,1184c-0.5-0.3-1-0.4-1.4-0.1c-0.8,0.5-0.8,1.9,0,3.3c0.4,0.7,0.9,1.2,1.4,1.5
							c0.5,0.3,1,0.4,1.4,0.1c0.8-0.5,0.8-1.9,0-3.3C724.5,1184.8,723.9,1184.3,723.4,1184z"/>
						<path class="st26" d="M731.3,1176.6c-2.5-1.5-4.6-0.3-4.6,2.6c0,2.9,2,6.5,4.6,7.9c2.5,1.5,4.6,0.3,4.6-2.6
							C735.9,1181.6,733.9,1178,731.3,1176.6z"/>
						<path class="st26" d="M731.3,1192.3c-1.1-0.6-2-0.1-2,1.2c0,1.3,0.9,2.8,2,3.5c1.1,0.6,2,0.1,2-1.2
							C733.3,1194.5,732.4,1192.9,731.3,1192.3z"/>
						<path class="st26" d="M739.2,1193.1c-0.5-0.3-1-0.4-1.4-0.1c-0.8,0.4-0.8,1.9,0,3.3c0.4,0.7,0.9,1.2,1.4,1.5
							c0.5,0.3,1,0.4,1.4,0.1c0.8-0.5,0.8-1.9,0-3.3C740.2,1193.9,739.7,1193.4,739.2,1193.1z"/>
						<path class="st26" d="M723.5,1165.9c-0.5-0.3-1-0.4-1.4-0.1c-0.8,0.4-0.8,1.9,0,3.3c0.4,0.7,0.9,1.2,1.4,1.5
							c0.5,0.3,1,0.4,1.4,0.1c0.8-0.4,0.8-1.9,0-3.3C724.5,1166.7,724,1166.2,723.5,1165.9z"/>
						<path class="st26" d="M731.4,1171.4c1.1,0.6,2,0.1,2-1.2c0-1.3-0.9-2.8-2-3.5c-1.1-0.6-2-0.1-2,1.2
							C729.3,1169.2,730.2,1170.7,731.4,1171.4z"/>
						<path class="st26" d="M739.2,1179.6c0.5,0.3,1,0.4,1.4,0.1c0.8-0.4,0.8-1.9,0-3.3c-0.4-0.7-0.9-1.2-1.4-1.5
							c-0.5-0.3-1-0.4-1.4-0.1c-0.8,0.4-0.8,1.9,0,3.3C738.2,1178.8,738.7,1179.4,739.2,1179.6z"/>
						<path class="st26" d="M722.2,1176.6c0-1.3-0.9-2.8-2-3.5c-1.1-0.6-2-0.1-2,1.2c0,1.3,0.9,2.8,2,3.5
							C721.3,1178.4,722.2,1177.8,722.2,1176.6z"/>
						<path class="st26" d="M742.5,1185.9c-1.1-0.6-2-0.1-2,1.2c0,1.3,0.9,2.8,2,3.5c1.1,0.6,2,0.1,2-1.2
							C744.5,1188.1,743.6,1186.6,742.5,1185.9z"/>
					</g>
				</g>
			</g>
			<g>
				<polygon class="st0" points="501.5,885.3 638,808.1 637.7,905.5 501.2,982.7 				"/>
			</g>
			<g>
				<polygon class="st36" points="409.8,832.3 546.3,755.1 638,808.1 501.5,885.3 				"/>
			</g>
			<path class="st1" d="M390.8,891l19-58.7l91.7,52.9l-0.3,97.5v17.6l-38.5-22.3c-5.3-5.8-11.3-10.7-17.5-14.3
				c-21.5-12.4-39.5-4.9-43.2,16.5l-11.5-6.6L390.8,891z"/>
			<g>
				<polygon class="st11" points="835.7,1173.2 835.7,1202.8 936.8,1144.3 936.8,1114.7 				"/>
				<polygon class="st26" points="923.7,1130.1 854,1169.6 853.9,1203.1 820.5,1222 820.7,1167.3 957.1,1090.1 957,1144.8 
					923.7,1163.6 				"/>
				<g>
					<polygon class="st26" points="501.2,982.7 637.7,905.5 957.1,1090.1 820.7,1167.3 					"/>
					<g class="st37">
						<polygon class="st38" points="509.1,978.3 634.9,907.1 944.9,1087 819.1,1158.2 						"/>
					</g>
				</g>
				<g>
					<path class="st7" d="M830.1,1197.5c-3.1,1.8-5.6,6-5.9,9.6c0,0.2,0,0.4,0,0.7c0,3.8,2.7,5.3,6,3.4c3.3-1.9,5.9-6.5,5.9-10.2
						c0-0.2,0-0.4,0-0.6C835.7,1197,833.2,1195.7,830.1,1197.5z"/>
				</g>
				<g>
					<path class="st7" d="M844.6,1189.3c-3.1,1.8-5.6,6-5.9,9.6c0,0.2,0,0.4,0,0.7c0,3.8,2.7,5.3,6,3.4c3.3-1.9,5.9-6.5,5.9-10.2
						c0-0.2,0-0.4,0-0.6C850.2,1188.8,847.6,1187.5,844.6,1189.3z"/>
				</g>
				<g>
					<path class="st7" d="M933.8,1139.8c-3.1,1.8-5.6,6-5.9,9.6c0,0.2,0,0.4,0,0.7c0,3.8,2.7,5.3,6,3.4c3.3-1.9,5.9-6.5,5.9-10.2
						c0-0.2,0-0.4,0-0.6C939.4,1139.2,936.8,1138,933.8,1139.8z"/>
				</g>
				<g>
					<path class="st7" d="M948.2,1131.6c-3.1,1.8-5.6,6-5.9,9.6c0,0.2,0,0.4,0,0.7c0,3.8,2.7,5.3,6,3.4c3.3-1.9,5.9-6.5,5.9-10.2
						c0-0.2,0-0.4,0-0.6C953.9,1131,951.3,1129.8,948.2,1131.6z"/>
				</g>
				<polygon class="st25" points="820.7,1167.3 820.5,1222 799.3,1209.7 799.3,1172.4 501.2,1000.3 501.2,982.7 				"/>
			</g>
			<g>
				<path class="st10" d="M412.9,846.8c-0.6-0.4-1.2-0.2-1.5,0.3l-9.7,36.5c-0.4,0.9,0.4,2.6,1.4,3.2l53.4,30.9
					c0.9,0.5,1.5,0.1,1.5-0.9l0.1-42.1c0-1-0.7-2.2-1.5-2.7L412.9,846.8z"/>
			</g>
			<polygon class="st39" points="474.5,881 491,890.6 491,950.2 474.5,940.6 			"/>
			<g>
				<g>
					<polygon class="st9" points="966.6,925 819,1010.8 504.9,828.6 652,743 					"/>
					<polygon class="st1" points="819,1010.8 819,1175 966.6,1089.1 966.6,925 					"/>
					<polygon class="st1" points="504.9,828.6 819,1010.8 819,1175 504.9,992.8 					"/>
				</g>
				<polygon class="st4" points="504.9,931.5 819,1113.7 819,1175 504.9,992.8 				"/>
			</g>
			<path class="st0" d="M819,1010.8V1175l147.6-85.9V925L819,1010.8z M826.1,1014.9l131-76.9v147.7l-131,76.9V1014.9z"/>
		</g>
		<polygon class="st8" points="957.1,1085.7 826.1,1162.6 826.1,1014.9 830.3,1012.5 		"/>
		<g>
			<polygon class="st9" points="962.8,934.8 957.1,938.1 1019.2,974.1 1025.1,970.7 			"/>
			<polygon class="st1" points="1019.2,974.1 957.1,938.1 957.1,1085.7 1019.2,1121.7 			"/>
			<polygon class="st0" points="1025.1,970.7 1019.2,974.1 1019.2,1121.7 1025.1,1118.3 			"/>
		</g>
		<g>
			<defs>
				<polygon id="SVGID_7_" points="957.1,1085.7 826.1,1162.6 826.1,1014.9 957.1,938 				"/>
			</defs>
			<clipPath id="SVGID_8_">
				<use xlink:href="#SVGID_7_"  style="overflow:visible;"/>
			</clipPath>
			<g class="st40">
				<g>
					<g>
						<g>
							<polygon class="st31" points="859.3,1031 859.3,1071 890.5,1053 890.5,1013 							"/>
							<polygon class="st30" points="859.3,1031 859.3,1071 811.2,1043.3 811.2,1003.3 							"/>
							<polygon class="st32" points="890.5,1013 859.3,1031 811.2,1003.3 842.4,985.3 							"/>
						</g>
						<polygon class="st41" points="859.3,1040.4 859.3,1048 811.2,1020.3 811.2,1012.7 						"/>
					</g>
					<polygon class="st36" points="876.8,1043.3 876.8,1056.9 887.4,1050.8 887.4,1037.2 					"/>
				</g>
				<g>
					<g>
						<g>
							<polygon class="st31" points="859.3,985.6 859.3,1025.6 890.5,1007.6 890.5,967.6 							"/>
							<polygon class="st30" points="859.3,985.6 859.3,1025.6 811.2,997.9 811.2,957.9 							"/>
							<polygon class="st42" points="890.5,967.6 859.3,985.6 811.2,957.9 842.4,939.9 							"/>
						</g>
						<polygon class="st1" points="859.3,995 859.3,1002.6 811.2,974.9 811.2,967.3 						"/>
						<polygon class="st43" points="827.7,948.4 811.2,957.9 859.3,985.6 875.7,976.1 						"/>
					</g>
					<polygon class="st36" points="876.8,997.9 876.8,1011.5 887.4,1005.4 887.4,991.8 					"/>
				</g>
				<g>
					<g>
						<g>
							<polygon class="st31" points="911.1,1060.7 911.1,1100.7 942.3,1082.7 942.3,1042.7 							"/>
							<polygon class="st30" points="911.1,1060.7 911.1,1100.7 863.1,1073 863.1,1033 							"/>
							<polygon class="st32" points="942.3,1042.7 911.1,1060.7 863.1,1033 894.3,1015 							"/>
						</g>
						<polygon class="st1" points="911.1,1070.2 911.1,1077.8 863.1,1050 863.1,1042.4 						"/>
					</g>
					<polygon class="st36" points="928.6,1073 928.6,1086.6 939.2,1080.5 939.2,1066.9 					"/>
				</g>
				<g>
					<g>
						<g>
							<polygon class="st31" points="875.2,1081.8 875.2,1121.8 906.4,1103.8 906.4,1063.8 							"/>
							<polygon class="st44" points="875.2,1081.8 875.2,1121.8 827.1,1094.1 827.1,1054.1 							"/>
							<polygon class="st32" points="906.4,1063.8 875.2,1081.8 827.1,1054.1 858.3,1036.1 							"/>
						</g>
						<polygon class="st41" points="875.2,1091.2 875.2,1098.8 827.1,1071.1 827.1,1063.5 						"/>
					</g>
					<polygon class="st36" points="892.7,1094.1 892.7,1107.7 903.3,1101.6 903.3,1088 					"/>
				</g>
				<g>
					<g>
						<g>
							<polygon class="st31" points="911.1,1015.3 911.1,1055.3 942.3,1037.3 942.3,997.3 							"/>
							<polygon class="st30" points="911.1,1015.3 911.1,1055.3 863.1,1027.6 863.1,987.6 							"/>
							<polygon class="st32" points="942.3,997.3 911.1,1015.3 863.1,987.6 894.3,969.6 							"/>
						</g>
						<polygon class="st1" points="911.1,1024.8 911.1,1032.4 863.1,1004.6 863.1,997 						"/>
					</g>
					<polygon class="st36" points="928.6,1027.6 928.6,1041.2 939.2,1035.1 939.2,1021.5 					"/>
				</g>
			</g>
		</g>
		<g>
			<polygon class="st9" points="826.1,1015 820.4,1018.3 882.4,1054.4 888.3,1050.9 			"/>
			<polygon class="st1" points="882.4,1054.4 820.4,1018.3 820.4,1165.9 882.4,1201.9 			"/>
			<polygon class="st0" points="888.3,1050.9 882.4,1054.4 882.4,1201.9 888.3,1198.5 			"/>
		</g>
	</g>
	<g>
		<g>
			<g>
				<polygon class="st30" points="1742.7,1097.2 1742.7,1203.9 1612.2,1128.4 1612.2,1021.7 				"/>
				<polygon class="st32" points="1612.2,1021.7 1742.7,1097.2 1922.1,993.5 1791.5,918 				"/>
				<polygon class="st31" points="1742.7,1097.2 1742.7,1203.9 1922.1,1100.2 1922.1,993.5 				"/>
			</g>
			<polygon class="st30" points="1791.5,922.9 1620.7,1021.7 1742.7,1092.3 1913.6,993.5 			"/>
			<polygon class="st31" points="1791.5,922.9 1620.7,1021.7 1742.7,1092.3 1791.5,1064.1 			"/>
			<polygon class="st45" points="1708.7,1072.6 1742.7,1092.3 1825.6,1044.4 1791.5,1024.7 			"/>
			<polygon class="st32" points="1742.7,1097.2 1790.6,1144.3 1970,1040.5 1922.1,993.5 			"/>
			<polygon class="st32" points="1564.3,1014.6 1612.2,1021.7 1791.5,918 1743.7,910.8 			"/>
		</g>
		<g>
			<defs>
				<polygon id="SVGID_9_" points="1791.5,922.9 1620.7,1021.7 1742.7,1092.3 1913.6,993.5 				"/>
			</defs>
			<clipPath id="SVGID_10_">
				<use xlink:href="#SVGID_9_"  style="overflow:visible;"/>
			</clipPath>
			<g class="st46">
				<g>
					<g>
						<g>
							<polygon class="st33" points="1750.5,1139.4 1750.5,1143.7 1659.7,1091.3 1659.7,1087 							"/>
							<polygon class="st47" points="1750.5,1139.4 1659.7,1087 1789.5,1012.1 1880.3,1064.5 							"/>
							<polygon class="st48" points="1880.3,1064.5 1880.3,1068.8 1750.5,1143.7 1750.5,1139.4 							"/>
						</g>
						<g>
							<polygon class="st33" points="1750.5,1113.2 1750.5,1117.5 1659.7,1065.1 1659.7,1060.8 							"/>
							<polygon class="st47" points="1750.5,1113.2 1659.7,1060.8 1789.5,985.8 1880.3,1038.3 							"/>
							<polygon class="st48" points="1880.3,1038.3 1880.3,1042.6 1750.5,1117.5 1750.5,1113.2 							"/>
						</g>
						<polygon class="st34" points="1750.5,1113.2 1880.3,1038.3 1880.3,1068.8 1750.5,1143.7 						"/>
						<path class="st33" d="M1750.5,1113.2v30.1C1750.5,1143.3,1758.5,1132.3,1750.5,1113.2z"/>
						<path class="st34" d="M1880.3,1038.3v30.5C1880.3,1068.8,1888.3,1057.7,1880.3,1038.3z"/>
						<path class="st49" d="M1750.5,1117.5l-88.5-51.1c0,0,2.2,7.5,0,21.9l88.5,51.1V1117.5z"/>
						
							<linearGradient id="SVGID_11_" gradientUnits="userSpaceOnUse" x1="6958.6807" y1="1068.6158" x2="6978.4785" y2="1068.6158" gradientTransform="matrix(-1 0 0 1 8823.8896 0)">
							<stop  offset="0" style="stop-color:#DFE6ED"/>
							<stop  offset="1" style="stop-color:#FFFFFF"/>
						</linearGradient>
						<path class="st50" d="M1845.4,1058.4l16.2-9.3c5.7,14.3,3.5,24.5,1.5,29.6l-16.2,9.4
							C1848.9,1082.7,1850.8,1072.6,1845.4,1058.4z"/>
					</g>
					<polygon class="st51" points="1752.2,1020.8 1784.5,1002.2 1852,1041.2 1819.7,1059.8 					"/>
				</g>
				<g>
					<g>
						<g>
							<polygon class="st52" points="1750.5,1105.3 1750.5,1109.6 1659.7,1057.1 1659.7,1052.8 							"/>
							
								<linearGradient id="SVGID_12_" gradientUnits="userSpaceOnUse" x1="6943.5605" y1="1041.5909" x2="7164.2109" y2="1041.5909" gradientTransform="matrix(-1 0 0 1 8823.8896 0)">
								<stop  offset="0" style="stop-color:#6AA6ED"/>
								<stop  offset="0.3183" style="stop-color:#6AA1ED"/>
								<stop  offset="0.6756" style="stop-color:#6B94ED"/>
								<stop  offset="1" style="stop-color:#6C81ED"/>
							</linearGradient>
							<polygon class="st53" points="1750.5,1105.3 1659.7,1052.8 1789.5,977.9 1880.3,1030.4 							"/>
							<polygon class="st48" points="1880.3,1030.4 1880.3,1034.7 1750.5,1109.6 1750.5,1105.3 							"/>
						</g>
						<g>
							<polygon class="st4" points="1750.5,1079.1 1750.5,1083.4 1659.7,1030.9 1659.7,1026.6 							"/>
							<polygon class="st22" points="1750.5,1079.1 1659.7,1026.6 1789.5,951.7 1880.3,1004.1 							"/>
							<polygon class="st48" points="1880.3,1004.1 1880.3,1008.4 1750.5,1083.4 1750.5,1079.1 							"/>
						</g>
						<polygon class="st21" points="1750.5,1079.1 1880.3,1004.1 1880.3,1034.7 1750.5,1109.6 						"/>
						<path class="st4" d="M1750.5,1079.1v30.1C1750.5,1109.2,1758.5,1098.2,1750.5,1079.1z"/>
						<path class="st54" d="M1880.3,1004.1v30.5C1880.3,1034.7,1888.3,1023.5,1880.3,1004.1z"/>
						<path class="st49" d="M1750.5,1083.4l-88.5-51.1c0,0,2.2,7.5,0,21.9l88.5,51.1V1083.4z"/>
						
							<linearGradient id="SVGID_13_" gradientUnits="userSpaceOnUse" x1="6958.6807" y1="1034.4613" x2="6978.4785" y2="1034.4613" gradientTransform="matrix(-1 0 0 1 8823.8896 0)">
							<stop  offset="0" style="stop-color:#DFE6ED"/>
							<stop  offset="1" style="stop-color:#FFFFFF"/>
						</linearGradient>
						<path class="st55" d="M1845.4,1024.3l16.2-9.3c5.7,14.3,3.5,24.5,1.5,29.6l-16.2,9.4
							C1848.9,1048.6,1850.8,1038.4,1845.4,1024.3z"/>
					</g>
					<polygon class="st51" points="1752.2,986.7 1784.5,968 1852,1007 1819.7,1025.7 					"/>
				</g>
			</g>
		</g>
	</g>
	<g>
		<g>
			<path class="st56" d="M1612.4,637.5l10.7,13.3c-6.7,11.3-9.7,13.4-16,16.8s-8.9,4.1-14.3,0.7c-5.4-3.5-1.5-8.6-1.5-8.6
				c9.6-6.2,13.3-12,13.3-12s-2.5-1.5-7.1,1.4c-4.6,2.9-5.4-0.7-5.4-0.7s0-2.3,5.9-5.3C1603.9,640,1612.4,637.5,1612.4,637.5z"/>
			<path class="st57" d="M1741,857.1c0,13.2-26.5,24-59.1,24c-32.7,0-59.1-10.7-59.1-24c0-13.2,26.5-24,59.1-24
				C1714.5,833.1,1741,843.9,1741,857.1z"/>
			<path class="st4" d="M1635.9,849.7c3.6-3,17.1-8.5,18.7-9.7c1.6-1.2,0.8-7.1,0.8-7.1l23.7-0.4c2.8,12,0.4,22.8,0.4,22.8
				c-14.4,4.9-37.2,9-42.6,7.8C1631.6,861.9,1632.3,852.7,1635.9,849.7z"/>
			<path class="st21" d="M1633.7,860.1c25.3-0.6,41.5-6.3,46.5-8.4c-0.3,2.3-0.5,3.7-0.5,3.7c-14.4,4.9-37.2,9-42.6,7.8
				C1635.4,862.8,1634.3,861.6,1633.7,860.1z"/>
			<path class="st4" d="M1685,862.3c3.4-3.3,16.5-9.7,18.1-11c1.5-1.3,0.4-7.1,0.4-7.1l23.7-1.9c3.5,11.8,1.9,22.7,1.9,22.7
				c-14,5.9-36.5,11.5-42,10.6C1681.6,874.8,1681.7,865.6,1685,862.3z"/>
			<path class="st21" d="M1683.6,872.8c25.2-2.3,40.9-9.1,45.8-11.5c-0.1,2.3-0.3,3.7-0.3,3.7c-14,5.8-36.5,11.5-42,10.6
				C1685.4,875.4,1684.3,874.2,1683.6,872.8z"/>
			<path class="st10" d="M1660.2,664.9c0,0-7.5,84.6-7.2,173.1c0,0,11.7,5,28.6,1.8c0,0,3-94.2,9.8-136.3l5.9-25.2l3-26.3l-35.4-3.4
				L1660.2,664.9z"/>
			<path class="st30" d="M1664.8,588.4l3.3-27.2l-5.7-20.9c0,0-7.6,23.8-14.4,43c0,0-11.1,32-37.8,53.2c0,0,4.3,10,13.6,16.2
				c0,0,32.5-21.8,42.8-47.9L1664.8,588.4L1664.8,588.4z"/>
			<path class="st58" d="M1705.2,519.7c0,0,0.3,5.4,1.8,11.4l-1.8,10.7l-18.3,9.8h-5.9l-1.6-6.9c0,0,2.3-14.4,0.9-19.6L1705.2,519.7
				z"/>
			<path class="st10" d="M1727.7,657.2c0,0-0.9,90.4-0.9,102.5c0,12.1,3,82.8,3,82.8s0.5,10.1-28.3,4.5l-7.1-81.8l-2.7-75.7v-20.2
				L1727.7,657.2z"/>
			<path class="st32" d="M1676.1,541.9l-0.1-2.2l4.3-2.6c4.1,11.4,28-4.2,28-4.2l0.4,1l2.1-1l4.4,7.4l-7.5,86.1l-8.3,30.3
				c0,0-11.8,2.7-26.9-4l-4.4-112.4L1676.1,541.9z"/>
			<path class="st32" d="M1743.3,549.4c0,0-10.2-10.6-36.4-18.3c0,0-14.8,27-21.8,43.7c0,0-5.3-20.3-4.7-40.5l-18.2,5.5
				c-1.5,24.5-4.1,53.7-3.3,76.7l0,0c-0.4,9.2-0.8,43.4-0.8,43.4c24.9,14.8,55.2,7.3,66.2,4.9c2.3-0.2,5.9-1.7,6.8-2.4
				C1731.3,662.4,1731.6,576.5,1743.3,549.4z"/>
			<g>
				<path class="st59" d="M1711.9,514.9c0,0-2.9,19.5-22.1,20.6c-22.2,1.3-25.6-25.4-23.7-38.2c1.7-11.9,15.9-26.8,32-18.7
					C1710.1,484.6,1715,496.9,1711.9,514.9z"/>
				<path class="st10" d="M1664.8,485.5c4-6.7,11.2-11.6,19-12.7c7.5-1.1,15.2,1.1,21,6c11.6,9.7,14.6,28.3,7.4,41.5
					c-1,1.9-2.3,3.3-3.8,4.8c-0.3,0.3-2.6,2.1-2.6,2.5l-3.5-6.1c3.4-1.1,4.1-6.6,4.1-6.6c1.3-8.8-5.2-6.9-5.2-6.9
					c0.6,3.9-0.5,9.8-0.5,9.8c-0.8,1.2-4.6,0.9-4.6,0.9c1.5-7.6-2.3-16.2-2.3-16.2c-19.2-2.8-28.1,1.4-28.3,1.5
					c-0.5,0.2-1.8-1.7-2-1.9c-3.1-4.8-1.8-11.4,0.9-16.2C1664.7,485.8,1664.7,485.7,1664.8,485.5z"/>
				<g>
					<path class="st21" d="M1668.5,496.5c0,0-22.9,11.8-18.2,17.7c4,5,27.6,6.3,31.6,6.1c3.9-0.2,13.8-13,13.8-13l-7.2-7.5
						L1668.5,496.5z"/>
					<path class="st4" d="M1690.6,472c-27.9,1.1-30.3,20.1-29.4,28c0.2,2,1.7,3.8,3.6,4.3c31.5,9.1,51.5-3.5,51.5-3.5
						C1719,471.2,1690.6,472,1690.6,472z"/>
				</g>
			</g>
		</g>
		<g>
			<g>
				<g>
					<polygon class="st0" points="1716.5,597.1 1704.4,604 1704.5,624.3 1716.5,617.1 					"/>
					<polygon class="st60" points="1704.4,604 1582.3,533.4 1582.3,553.7 1704.5,624.3 					"/>
					<polygon class="st9" points="1716.5,597.1 1593.9,526.7 1582.3,533.4 1704.4,604 					"/>
				</g>
				<g>
					<polygon class="st0" points="1704.4,604 1680.4,617.7 1680.4,701.4 1704.4,687.4 					"/>
					<polygon class="st1" points="1680.4,617.7 1558.8,547 1558.8,630.7 1680.4,701.4 					"/>
					<polygon class="st9" points="1704.4,604 1582.3,533.4 1558.8,547 1680.4,617.7 					"/>
				</g>
			</g>
			<g>
				<polygon class="st21" points="1670.7,631.5 1554.6,698.3 1554.6,733.8 1670.7,666.2 				"/>
				<polygon class="st21" points="1554.6,698.3 1443.2,633.6 1443.2,669.1 1554.6,733.8 				"/>
				<polygon class="st4" points="1670.7,631.5 1558.8,566.9 1443.2,633.6 1554.6,698.3 				"/>
			</g>
			<g>
				<polygon class="st21" points="1554.6,699.2 1436.4,766.5 1436.4,802.5 1554.6,733.8 				"/>
				<polygon class="st61" points="1436.4,766.5 1325,701.8 1325,737.8 1436.4,802.5 				"/>
				<polygon class="st4" points="1555.7,697.8 1443.2,633.6 1325,701.8 1436.4,766.5 				"/>
			</g>
			<g>
				<g>
					<polygon class="st21" points="1699.1,561 1581.4,629.5 1553,700.6 1670.7,631.5 					"/>
					<polygon class="st62" points="1581.4,629.5 1555.7,614.2 1527.3,685.4 1553,700.6 					"/>
					<polygon class="st22" points="1699.1,561 1673,545.9 1555.7,614.2 1581.4,629.5 					"/>
				</g>
				<g>
					<polygon class="st21" points="1581.4,629.5 1465.8,696 1437.4,767.2 1553,700.6 					"/>
					<polygon class="st21" points="1465.8,696 1440.1,680.8 1411.7,751.9 1437.4,767.2 					"/>
					<polygon class="st22" points="1581.4,629.5 1555.7,614.2 1440.1,680.8 1465.8,696 					"/>
				</g>
			</g>
			<g>
				<g>
					<polygon class="st0" points="1441,756.1 1416.9,769.9 1416.9,853.5 1441,839.5 					"/>
					<polygon class="st1" points="1416.9,769.9 1295.3,699.2 1295.3,782.8 1416.9,853.5 					"/>
					<polygon class="st9" points="1441,756.1 1318.8,685.5 1295.3,699.2 1416.9,769.9 					"/>
				</g>
				<g>
					<polygon class="st0" points="1416.9,769.9 1404.8,776.8 1404.8,797.1 1416.9,789.9 					"/>
					<polygon class="st0" points="1404.8,776.8 1283.7,705.9 1283.7,726.2 1404.8,797.1 					"/>
					<polygon class="st9" points="1416.9,769.9 1295.3,699.2 1283.7,705.9 1404.8,776.8 					"/>
				</g>
			</g>
		</g>
		<g>
			<path class="st57" d="M1284.6,1040.6c0,14,28,25.3,62.5,25.3c34.5,0,62.5-11.3,62.5-25.3c0-14-28-25.3-62.5-25.3
				C1312.6,1015.2,1284.6,1026.6,1284.6,1040.6z"/>
			<g>
				<path class="st4" d="M1391.3,1026.8c-2.4,0.7-4.8,1.8-6.9,3.1c-4.8,3.1-7.8,0-7.8,0l-16.8,1c-2,2.4-1.3,20.7-1.3,20.7
					c4.3,2.1,10,2,14.6,1.6c10.8-1,20.6-6.4,28.7-13.6c0.6-0.5,1.1-1.1,1.6-1.6C1402.1,1025.1,1393.4,1026.3,1391.3,1026.8z"/>
				<path class="st21" d="M1402.8,1035.4c-8.5,7.6-18.8,13.3-30.1,14.3c-4.5,0.4-10,0.5-14.3-1.2c0,1.9,0.1,3.2,0.1,3.2
					c4.3,2.1,10,2,14.6,1.6c10.8-1,20.6-6.4,28.7-13.6c0.6-0.5,1.1-1.1,1.6-1.6c-0.1-1-0.2-1.8-0.4-2.7
					C1402.9,1035.3,1402.9,1035.4,1402.8,1035.4z"/>
				<path class="st4" d="M1328,1028.8c-2.5,0.5-4.9,1.3-7.1,2.5c-5.1,2.6-7.8-0.7-7.8-0.7l-16.8-0.5c-2.2,2.2-3.1,20.5-3.1,20.5
					c4.1,2.5,9.8,2.9,14.4,2.9c10.8,0,21-4.6,29.8-11c0.6-0.5,1.2-1,1.7-1.5C1339,1028.1,1330.2,1028.5,1328,1028.8z"/>
				<path class="st21" d="M1338.8,1038.4c-9.1,6.8-19.9,11.5-31.2,11.6c-4.5,0-10-0.4-14.1-2.5c-0.1,1.9-0.2,3.2-0.2,3.2
					c4.1,2.5,9.8,2.9,14.4,2.9c10.8,0,21-4.6,29.8-11c0.6-0.5,1.2-1,1.7-1.5c0-1-0.1-1.9-0.2-2.7
					C1338.9,1038.3,1338.8,1038.4,1338.8,1038.4z"/>
				<path class="st56" d="M1403.2,830.4l-7.9,11.5c6.1,8.8,8.7,10.3,14.1,12.7c5.4,2.4,7.5,2.8,11.7-0.3c4.2-3.2,0.7-7.1,0.7-7.1
					c-8.2-4.4-11.6-9-11.6-9s2-1.4,5.9,0.7c3.9,2,4.3-0.9,4.3-0.9s-0.2-1.9-5.2-4C1410.2,831.9,1403.2,830.4,1403.2,830.4z"/>
				<path class="st30" d="M1291,724.6c0,0-29.9,11.6,2.7,55.4L1291,724.6z"/>
				<path class="st10" d="M1362.2,855.6l12.6,85.3l9.3,90c0,0-14.8,8.5-27.6,2.2l-11.7-87l-24.5-78.6L1362.2,855.6z"/>
				<path class="st10" d="M1326.9,865.1l0.9,79l-6.5,88.4c0,0-18.1,4.4-28.3-1.1l2.4-90.9l-5.6-82.7L1326.9,865.1z"/>
				<path class="st32" d="M1367.9,857.6c0.1-5.2-4.6-50-4.6-50c-0.7-35.2-4.1-78.1-4.1-78.1l-26.1-6.6l-26.3-3.1l-11.2,3.2
					c-4.9,0.5-8.8,4.1-9.5,8.8c-1,6.6-1.4,13.3-1.2,20c0.2,7.2,2.6,14.5,3.6,21.7c4,27.9-0.5,55.2-2.5,83c0,0-0.2,2.1,2.6,4.1
					c21.4,17.1,75.6,6.2,75.6,6.2C1369.1,866.1,1367.8,861.7,1367.9,857.6z"/>
				<path class="st58" d="M1306.3,709c0.9,1,1.8,1.8,2.7,2.6c5.7,4.4,14.6,7.3,21.3,9c1.1,0.3,1.6-1,2.8-0.9l-0.1,3.1
					c-7,2.5-13.5,4.8-18.5,3.5c-3.7-1-7.6-2.6-7.8-6.9L1306.3,709L1306.3,709z"/>
				<path class="st30" d="M1407.1,830.4l-30.8-39.7l-17.1-61.4c-26.2,7.6-14.3,36.9-14.3,36.9l10.1,34.2c2.1,4.6,2.4,5.6,5.4,8.3
					l32.6,35.1C1404.7,840.6,1407.1,830.4,1407.1,830.4z"/>
			</g>
			<path class="st56" d="M1302,700c2,13.9,13.6,23.8,25.9,22c12.3-1.8,20.7-14.5,18.7-28.4c-2-13.9-13.6-23.8-25.9-22
				C1308.4,673.4,1300,686.1,1302,700z"/>
			<path class="st10" d="M1300.9,674.1L1300.9,674.1c0.7-0.9,2.2-1.8,3.9-2.4c3.1-1.8,6.1-3.2,9.1-4.1l-4.4-2.2
				c15-4.6,24.2,2.2,24.2,2.2l-1.7-4.4c13.3,4,15,10.9,15,14.4c0,0.1,0,0.2,0,0.3c0,0.2,0,0.4,0,0.5c0,0.1,0,0.1,0,0.2
				c-0.1,0.7-0.2,1.2-0.2,1.2c-1.2,4.5-5.4,8.4-5.4,8.4c-7.1-0.4-11.7,1.7-14.1,3.2c0,0,16.2,22.8-11.6,29c-5.2-1.3-5.4-1.7-9.3-4.3
				c-7.1-4.9-12.3-14.7-13.1-22.9C1292.7,687.5,1295.6,677.9,1300.9,674.1z"/>
			<g>
				<g>
					<path class="st21" d="M1350.2,687.5c0,0,13.8-4.9,11.3-9.7c-2.4-4.8-15.4-13.4-30.2-8.1
						C1318.8,674.1,1350.2,687.5,1350.2,687.5z"/>
					<path class="st4" d="M1312.3,661.5c-34.5,12.8-16.5,41.1-16.5,41.1c35,0.1,54.4-15.1,54.4-15.1
						C1346.6,651.8,1312.3,661.5,1312.3,661.5z"/>
				</g>
				<path class="st10" d="M1305.6,689.3c-10.7,1.5-7.7,9.6-7.7,9.6c5.5,0,15.4-1.2,15.4-1.2C1313.7,688.5,1305.6,689.3,1305.6,689.3
					z"/>
			</g>
		</g>
		<path class="st56" d="M1703.9,664.9l12.4,11.7c-5.1,12.1-7.8,14.6-13.6,18.8c-5.8,4.2-8.3,5.3-14.1,2.6c-5.8-2.7-2.6-8.3-2.6-8.3
			c8.7-7.4,11.5-13.7,11.5-13.7s-2.7-1.1-6.8,2.3c-4.1,3.4-5.4,0-5.4,0s-0.3-2.3,5.2-6.1C1695.8,668.5,1703.9,664.9,1703.9,664.9z"
			/>
		<path class="st30" d="M1701.3,663.4c0,0,5.1,13.1,13.9,18.8c0,0,60.6-60.4,28.1-132c0,0-14.8,7.1-14.6,34.7
			C1728.7,584.9,1731.4,629.3,1701.3,663.4z"/>
	</g>
</g>
</svg>
