<svg width="134" height="122" viewBox="0 0 134 122" fill="none" xmlns="http://www.w3.org/2000/svg">
<path d="M34.9747 17.1321C36.681 9.02714 46.0534 5.23136 52.9187 9.86491L105.393 45.2814C114.031 51.1114 111.274 64.4794 101.034 66.416L38.6191 78.2203C30.4405 79.7671 23.3193 72.4979 25.034 64.3529L34.9747 17.1321Z" fill="#F2F2FE"/>
<g clip-path="url(#clip0)">
<path d="M58.5982 73.5084C57.6848 73.5105 56.7799 73.3317 55.9359 72.9824C55.0919 72.6331 54.3254 72.12 53.6807 71.4729L51.9702 69.7625C51.7962 69.5892 51.6581 69.3833 51.5639 69.1566C51.4696 68.9298 51.4211 68.6867 51.4211 68.4412C51.4211 68.1956 51.4696 67.9525 51.5639 67.7257C51.6581 67.499 51.7962 67.2931 51.9702 67.1198L56.6397 62.4503C56.9442 62.1426 57.3463 61.9504 57.7769 61.9067C58.2076 61.863 58.6401 61.9705 59.0002 62.2108L61.3862 63.8016C61.5535 63.9263 61.7606 63.9856 61.9685 63.9682C62.1764 63.9509 62.3708 63.8582 62.5151 63.7075L68.6385 57.5499C68.7851 57.4092 68.8768 57.2209 68.8972 57.0187C68.9175 56.8166 68.8653 56.6138 68.7497 56.4466L67.1505 53.9494C66.9216 53.5866 66.8256 53.1557 66.8786 52.73C66.9316 52.3044 67.1304 51.9102 67.4412 51.6146L72.0766 46.9622C72.4318 46.6209 72.9053 46.4303 73.3979 46.4303C73.8905 46.4303 74.364 46.6209 74.7192 46.9622L76.481 48.724C77.6798 49.9262 78.398 51.5251 78.5004 53.2199C78.6028 54.9146 78.0823 56.5884 77.0369 57.9262C74.977 60.5491 72.7638 63.0478 70.4089 65.4094C68.0473 67.7643 65.5486 69.9775 62.9256 72.0374C61.6915 73.0038 60.1657 73.5224 58.5982 73.5084ZM57.9311 63.5878C57.8888 63.5897 57.8489 63.6081 57.82 63.6391L53.159 68.3086C53.1301 68.3401 53.1141 68.3813 53.1141 68.4241C53.1141 68.4668 53.1301 68.508 53.159 68.5395L54.8694 70.25C55.7765 71.1551 56.9832 71.6973 58.2623 71.7745C59.5414 71.8517 60.8045 71.4585 61.8139 70.669C64.386 68.6584 66.8363 66.4966 69.1517 64.195C71.4613 61.8826 73.6317 59.4352 75.6514 56.8657C76.4392 55.8567 76.8306 54.5944 76.7518 53.3167C76.6731 52.0391 76.1295 50.8344 75.2238 49.9298L73.5133 48.1681C73.4818 48.1392 73.4406 48.1232 73.3979 48.1232C73.3551 48.1232 73.314 48.1392 73.2824 48.1681L68.6471 52.8205C68.6242 52.8481 68.6116 52.8829 68.6116 52.9188C68.6116 52.9548 68.6242 52.9895 68.6471 53.0172L70.2464 55.5059C70.5737 56.0021 70.7185 56.5966 70.6561 57.1878C70.5937 57.779 70.328 58.3302 69.9043 58.7472L63.7552 64.8962C63.3308 65.3276 62.7676 65.5951 62.1651 65.6514C61.5626 65.7078 60.9596 65.5493 60.4626 65.2041L58.0338 63.622C58.0202 63.6091 58.004 63.5994 57.9862 63.5935C57.9685 63.5876 57.9497 63.5856 57.9311 63.5878Z" fill="#776CF2"/>
<path d="M61.1295 49.8532L53.689 47.7322V42.541C55.1163 41.5011 56.2778 40.1387 57.0789 38.5649C57.8799 36.991 58.2979 35.2502 58.2987 33.4842V25.4194C58.3258 22.4998 57.2137 19.6845 55.1986 17.5716C53.1835 15.4586 50.4241 14.2143 47.5064 14.103C44.5887 13.9917 41.7426 15.0221 39.5723 16.9754C37.4021 18.9286 36.0787 21.651 35.8832 24.5642H35.5411C34.7034 24.5642 33.8998 24.8964 33.3066 25.488C32.7135 26.0796 32.3791 26.8822 32.3768 27.72V32.3382C32.3791 34.3985 33.1991 36.3736 34.6568 37.8297C36.1144 39.2858 38.0905 40.1036 40.1508 40.1036H40.4672V47.7493L27.5533 51.3841C25.263 52.2279 23.2853 53.7515 21.8852 55.7508C20.485 57.7501 19.7294 60.1296 19.7195 62.5704V68.0866C19.7195 68.3134 19.8096 68.5309 19.97 68.6913C20.1304 68.8517 20.3479 68.9418 20.5747 68.9418C20.8015 68.9418 21.0191 68.8517 21.1794 68.6913C21.3398 68.5309 21.4299 68.3134 21.4299 68.0866V62.5704C21.4321 60.4861 22.0725 58.4524 23.2651 56.7431C24.4577 55.0337 26.1453 53.7305 28.1007 53.009L37.3628 50.4433C38.4746 53.8642 42.4086 56.2845 47.1123 56.2845C51.8161 56.2845 55.7501 53.8471 56.8619 50.4519L60.7104 51.5465C60.7872 51.5548 60.8646 51.5548 60.9413 51.5465C61.1681 51.5772 61.3978 51.5164 61.5799 51.3777C61.7619 51.239 61.8814 51.0336 61.912 50.8068C61.9426 50.58 61.8819 50.3503 61.7432 50.1682C61.6044 49.9862 61.3991 49.8667 61.1722 49.8361L61.1295 49.8532ZM47.0696 15.9008C49.4507 15.9026 51.7447 16.7968 53.4989 18.4069C55.2531 20.017 56.3401 22.2262 56.5455 24.5984C56.4828 24.5936 56.4199 24.5936 56.3573 24.5984H54.5357C53.2711 24.6161 52.0156 24.3833 50.8414 23.9136C49.6671 23.444 48.5974 22.7466 47.6939 21.8617L46.24 20.442V24.5984H37.5937C37.801 22.2269 38.8886 20.0189 40.6424 18.4092C42.3961 16.7994 44.689 15.9046 47.0696 15.9008ZM47.0696 54.5398C43.2125 54.5398 39.8857 52.5899 38.9706 49.9473L41.5363 49.2289C41.7213 49.1772 41.8834 49.0647 41.9967 48.9095C42.11 48.7544 42.1677 48.5656 42.1606 48.3737V40.078H47.0525C47.2793 40.078 47.4968 39.9879 47.6572 39.8275C47.8176 39.6671 47.9077 39.4496 47.9077 39.2228C47.9077 38.9959 47.8176 38.7784 47.6572 38.618C47.4968 38.4576 47.2793 38.3675 47.0525 38.3675H40.1508C38.5493 38.3653 37.0134 37.7304 35.8778 36.6012C34.7421 35.4719 34.0985 33.9397 34.0873 32.3382V27.72C34.0895 27.3359 34.2437 26.9683 34.5161 26.6975C34.7885 26.4266 35.157 26.2746 35.5411 26.2746H35.8405V33.4842C35.8405 33.711 35.9306 33.9285 36.091 34.0889C36.2513 34.2493 36.4689 34.3394 36.6957 34.3394C36.9225 34.3394 37.14 34.2493 37.3004 34.0889C37.4608 33.9285 37.5509 33.711 37.5509 33.4842V26.2746H47.9505V24.2478C49.8843 25.5922 52.1891 26.3007 54.5442 26.2746H56.3231C56.4023 26.2698 56.4802 26.2525 56.554 26.2233V33.4842C56.5518 36.0029 55.5532 38.4184 53.7762 40.2034C51.9992 41.9884 49.5882 42.9978 47.0696 43.0114C46.8428 43.0114 46.6252 43.1015 46.4648 43.2619C46.3045 43.4223 46.2144 43.6398 46.2144 43.8666C46.2144 44.0934 46.3045 44.311 46.4648 44.4714C46.6252 44.6317 46.8428 44.7218 47.0696 44.7218C48.7721 44.7207 50.4516 44.3287 51.9786 43.5758V48.3908C51.9715 48.5827 52.0292 48.7715 52.1425 48.9266C52.2557 49.0818 52.4179 49.1943 52.6029 49.246L55.1686 49.9815C54.2535 52.5814 50.9266 54.5398 47.0696 54.5398Z" fill="#776CF2"/>
<path d="M29.8113 62.9039C29.5845 62.9039 29.3669 62.994 29.2065 63.1544C29.0462 63.3148 28.9561 63.5323 28.9561 63.7592V68.3688C28.9561 68.5956 29.0462 68.8132 29.2065 68.9736C29.3669 69.1339 29.5845 69.2241 29.8113 69.2241C30.0381 69.2241 30.2556 69.1339 30.416 68.9736C30.5764 68.8132 30.6665 68.5956 30.6665 68.3688V63.7592C30.6665 63.5323 30.5764 63.3148 30.416 63.1544C30.2556 62.994 30.0381 62.9039 29.8113 62.9039Z" fill="#776CF2"/>
<path d="M22.8148 34.151C22.611 34.151 22.4138 34.0782 22.2589 33.9457L14.4764 27.275C10.1404 26.3257 7.00171 22.212 7.00171 17.3544C7.00171 11.7954 11.2094 7.25415 16.375 7.25415H24.9272C29.3829 7.25415 33.2315 10.7349 34.0867 15.5327C34.1264 15.7595 34.0743 15.9928 33.942 16.1813C33.8097 16.3698 33.6079 16.4979 33.3811 16.5376C33.1543 16.5773 32.921 16.5253 32.7326 16.393C32.5441 16.2606 32.4159 16.0589 32.3762 15.8321C31.6749 11.7868 28.5961 8.99026 24.8845 8.99026H16.3322C12.1074 8.99026 8.63519 12.7704 8.63519 17.4142C8.63519 21.4936 11.2864 24.9659 14.9467 25.6671C15.0919 25.6948 15.2275 25.7596 15.3402 25.8553L21.8826 31.4656V26.8559C21.8826 26.6291 21.9727 26.4116 22.1331 26.2512C22.2935 26.0908 22.511 26.0007 22.7378 26.0007H25.0127C25.2396 26.0007 25.4571 26.0908 25.6175 26.2512C25.7779 26.4116 25.868 26.6291 25.868 26.8559C25.868 27.0827 25.7779 27.3003 25.6175 27.4606C25.4571 27.621 25.2396 27.7111 25.0127 27.7111H23.67V33.2958C23.67 33.5226 23.5799 33.7401 23.4196 33.9005C23.2592 34.0609 23.0416 34.151 22.8148 34.151Z" fill="#776CF2"/>
<path d="M26.8946 16.4993H15.3662C15.1394 16.4993 14.9219 16.4092 14.7615 16.2488C14.6011 16.0884 14.511 15.8709 14.511 15.644C14.511 15.4172 14.6011 15.1997 14.7615 15.0393C14.9219 14.8789 15.1394 14.7888 15.3662 14.7888H26.8946C27.1215 14.7888 27.339 14.8789 27.4994 15.0393C27.6598 15.1997 27.7499 15.4172 27.7499 15.644C27.7499 15.8709 27.6598 16.0884 27.4994 16.2488C27.339 16.4092 27.1215 16.4993 26.8946 16.4993Z" fill="#776CF2"/>
<path d="M21.1304 19.9202H15.3662C15.1394 19.9202 14.9219 19.8301 14.7615 19.6697C14.6011 19.5093 14.511 19.2918 14.511 19.0649C14.511 18.8381 14.6011 18.6206 14.7615 18.4602C14.9219 18.2998 15.1394 18.2097 15.3662 18.2097H21.1304C21.3572 18.2097 21.5748 18.2998 21.7352 18.4602C21.8955 18.6206 21.9857 18.8381 21.9857 19.0649C21.9857 19.2918 21.8955 19.5093 21.7352 19.6697C21.5748 19.8301 21.3572 19.9202 21.1304 19.9202Z" fill="#776CF2"/>
</g>
<defs>
<clipPath id="clip0">
<rect width="71.4712" height="66.2628" fill="white" transform="translate(7.00171 7.25415)"/>
</clipPath>
</defs>
</svg>
