<svg xmlns="http://www.w3.org/2000/svg" width="74.984" height="53.716" viewBox="0 0 74.984 53.716">
  <path id="Path_46" data-name="Path 46" d="M67.432,65.6a3.367,3.367,0,0,0-.97-.214l-7-4.1V50.894c0-3.233-2.5-5.97-6.086-6.656l-2.985-.572c-.822-1.521-4.049-6.353-11.87-6.353s-11.048,4.832-11.87,6.353l-2.985.572c-3.583.689-6.086,3.423-6.086,6.656V61.283l-7,4.1a3.367,3.367,0,0,0-.97.214c-2.014.8-8.584,3.852-8.584,9.513v6.632a3.278,3.278,0,0,0,3.275,3.275v3.692a2.216,2.216,0,0,0,2.113,2.314l.1,0H7.5a2.286,2.286,0,0,0,2.033-1.577c.3-1,.8-3.268,1.041-4.434h55.91c.245,1.166.737,3.438,1.041,4.434a2.287,2.287,0,0,0,2.035,1.577h.976a2.216,2.216,0,0,0,2.213-2.219c0-.033,0-.065,0-.1V85.021a3.278,3.278,0,0,0,3.275-3.275V75.114C76.017,69.453,69.446,66.4,67.432,65.6ZM29.017,50.512a.847.847,0,0,0-.057-.536.869.869,0,0,1,.051-1.017,1.127,1.127,0,0,1,.868-.11,1.559,1.559,0,0,0,.727-.052c5.261-1.681,13.886-.74,15.753-.277a.934.934,0,0,0,.543-.036c.617-.223.933-.082,1.15.248a1.013,1.013,0,0,1-.123.932.615.615,0,0,0-.046.459c1.567,5.458,1.008,9.05.694,9.971a.8.8,0,0,0-.012.559,1.051,1.051,0,0,1,.1.522c-.077.641-.8.628-1.159.51a.977.977,0,0,0-.551.02c-3.2.825-12.288.957-17.228-.038a2,2,0,0,0-.669-.039,1.016,1.016,0,0,1-.936-.238.8.8,0,0,1-.007-.854,1.444,1.444,0,0,0,.076-1.046C27.231,56.363,28.756,51.739,29.017,50.512ZM14.164,65.36l4.556-2.672h8.194a2.6,2.6,0,0,0,1.881.744,3.637,3.637,0,0,0,.476-.032.706.706,0,0,1,.1.017,51.3,51.3,0,0,0,9.365.737,41.557,41.557,0,0,0,8.53-.688,3.163,3.163,0,0,0,.644.067,2.549,2.549,0,0,0,1.947-.845H58.33l4.555,2.672Z" transform="translate(-1.033 -37.313)" fill="#776cf2"/>
</svg>
