<svg width="136" height="54" viewBox="0 0 136 54" fill="none" xmlns="http://www.w3.org/2000/svg">
<path d="M18.1515 27.0141C19.6343 27.3489 20.8061 28.0903 21.6671 29.2382C22.5519 30.3622 22.9943 31.6536 22.9943 33.1125C22.9943 35.2648 22.253 36.9508 20.7702 38.1705C19.2875 39.3902 17.2069 40 14.5284 40H2.00887V14.7098H14.1338C16.7166 14.7098 18.7375 15.2838 20.1963 16.4317C21.679 17.5796 22.4204 19.1939 22.4204 21.2745C22.4204 22.7572 22.0258 24.0008 21.2366 25.0052C20.4713 25.9858 19.443 26.6554 18.1515 27.0141ZM9.0399 24.7541H12.5913C14.361 24.7541 15.2459 24.0247 15.2459 22.5659C15.2459 21.0593 14.361 20.3059 12.5913 20.3059H9.0399V24.7541ZM13.1294 34.3321C14.8991 34.3321 15.784 33.5908 15.784 32.108C15.784 31.3427 15.5448 30.7568 15.0665 30.3503C14.6121 29.9437 13.9544 29.7404 13.0935 29.7404H9.0399V34.3321H13.1294ZM29.6271 18.0101C28.3836 18.0101 27.3791 17.6753 26.6138 17.0057C25.8725 16.3121 25.5018 15.4512 25.5018 14.4228C25.5018 13.3706 25.8725 12.4977 26.6138 11.8041C27.3791 11.1106 28.3836 10.7638 29.6271 10.7638C30.8468 10.7638 31.8273 11.1106 32.5687 11.8041C33.334 12.4977 33.7166 13.3706 33.7166 14.4228C33.7166 15.4512 33.334 16.3121 32.5687 17.0057C31.8273 17.6753 30.8468 18.0101 29.6271 18.0101ZM33.1068 19.8755V40H26.0757V19.8755H33.1068ZM44.5364 19.6244C45.8996 19.6244 47.0834 19.8994 48.0878 20.4494C49.1161 20.9995 49.9053 21.7408 50.4554 22.6735V19.8755H57.4864V39.7848C57.4864 41.6741 57.1277 43.372 56.4102 44.8787C55.6928 46.4092 54.5688 47.6289 53.0382 48.5377C51.5316 49.4465 49.6184 49.9008 47.2986 49.9008C44.1896 49.9008 41.7025 49.1714 39.8371 47.7126C37.9717 46.2538 36.9075 44.2688 36.6444 41.7578H43.5679C43.7113 42.4035 44.0701 42.9057 44.644 43.2644C45.218 43.6231 45.9594 43.8025 46.8681 43.8025C49.2596 43.8025 50.4554 42.4633 50.4554 39.7848V37.2019C49.9053 38.1346 49.1161 38.876 48.0878 39.426C47.0834 39.9761 45.8996 40.2511 44.5364 40.2511C42.9341 40.2511 41.4753 39.8326 40.16 38.9956C38.8685 38.1585 37.8402 36.9628 37.0749 35.4083C36.3335 33.8299 35.9629 32.0004 35.9629 29.9198C35.9629 27.8392 36.3335 26.0216 37.0749 24.4672C37.8402 22.9127 38.8685 21.7169 40.16 20.8799C41.4753 20.0429 42.9341 19.6244 44.5364 19.6244ZM50.4554 29.9198C50.4554 28.6284 50.0967 27.612 49.3792 26.8706C48.6857 26.1293 47.8247 25.7586 46.7964 25.7586C45.7441 25.7586 44.8712 26.1293 44.1777 26.8706C43.4841 27.5881 43.1374 28.6045 43.1374 29.9198C43.1374 31.2112 43.4841 32.2396 44.1777 33.0048C44.8712 33.7462 45.7441 34.1169 46.7964 34.1169C47.8247 34.1169 48.6857 33.7462 49.3792 33.0048C50.0967 32.2635 50.4554 31.2351 50.4554 29.9198ZM68.9186 19.6244C70.2817 19.6244 71.4655 19.8994 72.47 20.4494C73.4983 20.9995 74.2875 21.7408 74.8376 22.6735V19.8755H81.8686V39.7848C81.8686 41.6741 81.5099 43.372 80.7924 44.8787C80.075 46.4092 78.951 47.6289 77.4204 48.5377C75.9137 49.4465 74.0005 49.9008 71.6808 49.9008C68.5718 49.9008 66.0846 49.1714 64.2193 47.7126C62.3539 46.2538 61.2897 44.2688 61.0266 41.7578H67.95C68.0935 42.4035 68.4522 42.9057 69.0262 43.2644C69.6002 43.6231 70.3415 43.8025 71.2503 43.8025C73.6418 43.8025 74.8376 42.4633 74.8376 39.7848V37.2019C74.2875 38.1346 73.4983 38.876 72.47 39.426C71.4655 39.9761 70.2817 40.2511 68.9186 40.2511C67.3163 40.2511 65.8574 39.8326 64.5421 38.9956C63.2507 38.1585 62.2224 36.9628 61.4571 35.4083C60.7157 33.8299 60.345 32.0004 60.345 29.9198C60.345 27.8392 60.7157 26.0216 61.4571 24.4672C62.2224 22.9127 63.2507 21.7169 64.5421 20.8799C65.8574 20.0429 67.3163 19.6244 68.9186 19.6244ZM74.8376 29.9198C74.8376 28.6284 74.4788 27.612 73.7614 26.8706C73.0678 26.1293 72.2069 25.7586 71.1786 25.7586C70.1263 25.7586 69.2534 26.1293 68.5599 26.8706C67.8663 27.5881 67.5195 28.6045 67.5195 29.9198C67.5195 31.2112 67.8663 32.2396 68.5599 33.0048C69.2534 33.7462 70.1263 34.1169 71.1786 34.1169C72.2069 34.1169 73.0678 33.7462 73.7614 33.0048C74.4788 32.2635 74.8376 31.2351 74.8376 29.9198ZM92.9061 13.4543V40H85.8751V13.4543H92.9061ZM116.138 29.7046C116.138 30.2546 116.102 30.8047 116.03 31.3547H102.722C102.793 32.4548 103.092 33.2799 103.618 33.8299C104.168 34.356 104.862 34.6191 105.699 34.6191C106.871 34.6191 107.708 34.093 108.21 33.0407H115.707C115.397 34.4278 114.787 35.6714 113.878 36.7715C112.993 37.8476 111.869 38.6966 110.506 39.3184C109.143 39.9402 107.636 40.2511 105.986 40.2511C104.001 40.2511 102.231 39.8326 100.677 38.9956C99.1462 38.1585 97.9385 36.9628 97.0536 35.4083C96.1927 33.8538 95.7622 32.0243 95.7622 29.9198C95.7622 27.8153 96.1927 25.9977 97.0536 24.4672C97.9146 22.9127 99.1103 21.7169 100.641 20.8799C102.195 20.0429 103.977 19.6244 105.986 19.6244C107.971 19.6244 109.729 20.0309 111.259 20.844C112.79 21.6571 113.986 22.829 114.846 24.3595C115.707 25.8662 116.138 27.6479 116.138 29.7046ZM108.963 27.9468C108.963 27.0859 108.676 26.4162 108.102 25.9379C107.528 25.4357 106.811 25.1846 105.95 25.1846C105.089 25.1846 104.384 25.4238 103.834 25.9021C103.284 26.3564 102.925 27.038 102.757 27.9468H108.963ZM127.589 40.2511C125.771 40.2511 124.145 39.9522 122.71 39.3543C121.299 38.7325 120.175 37.8955 119.338 36.8432C118.525 35.767 118.071 34.5593 117.975 33.2201H124.791C124.886 33.8658 125.185 34.368 125.688 34.7267C126.19 35.0855 126.812 35.2648 127.553 35.2648C128.127 35.2648 128.581 35.1452 128.916 34.9061C129.251 34.6669 129.418 34.356 129.418 33.9734C129.418 33.4712 129.143 33.1005 128.593 32.8613C128.043 32.6222 127.134 32.3591 125.867 32.0722C124.432 31.7852 123.236 31.4623 122.28 31.1036C121.323 30.7449 120.486 30.1589 119.769 29.3458C119.075 28.5327 118.728 27.4326 118.728 26.0456C118.728 24.8498 119.051 23.7736 119.697 22.817C120.343 21.8365 121.287 21.0593 122.531 20.4853C123.798 19.9113 125.317 19.6244 127.087 19.6244C129.717 19.6244 131.786 20.2701 133.293 21.5615C134.799 22.8529 135.672 24.5509 135.911 26.6554H129.562C129.442 26.0097 129.155 25.5194 128.701 25.1846C128.27 24.8259 127.684 24.6465 126.943 24.6465C126.369 24.6465 125.927 24.7541 125.616 24.9694C125.329 25.1846 125.185 25.4835 125.185 25.8662C125.185 26.3445 125.46 26.7152 126.01 26.9782C126.56 27.2174 127.445 27.4685 128.665 27.7316C130.124 28.0425 131.332 28.3892 132.288 28.7719C133.269 29.1545 134.118 29.7763 134.835 30.6372C135.576 31.4743 135.947 32.6222 135.947 34.081C135.947 35.2529 135.6 36.3051 134.907 37.2378C134.237 38.1705 133.269 38.9119 132.001 39.4619C130.758 39.988 129.287 40.2511 127.589 40.2511Z" fill="url(#paint0_linear)"/>
<defs>
<linearGradient id="paint0_linear" x1="176.909" y1="26.7614" x2="0.000193947" y2="26.9458" gradientUnits="userSpaceOnUse">
<stop stop-color="#AA9DF9"/>
<stop offset="1" stop-color="#776CF2"/>
</linearGradient>
</defs>
</svg>
