<svg xmlns="http://www.w3.org/2000/svg" width="308.529" height="243.578" viewBox="0 0 308.529 243.578">
  <g id="Group_141" data-name="Group 141" transform="translate(-3601.735 -1454)">
    <path id="Path_40" data-name="Path 40" d="M66.439,185c13.553-6.9,22.164-21.224,23.036-37.092.6-11,8.153-26.439,48.877-17.242,60.332,13.626,78.224,10.109,86.962,4.835s112.343-98.456,126.49-23.3c1.318,22.734-1.769,38.611-4.978,48.538a127.711,127.711,0,0,0-3.6,65.463,319.552,319.552,0,0,0,8.888,32.8c8.264,25.456-14.13,37.307-34.015,28.13-19.16-8.841-64.077-2.2-87.378,24.174s-76.976,15.384-92.787-8.351-51.088-28.014-65.741-39.119c-11.239-8.517-47.526-60.744-10.818-76.48Q64.07,186.213,66.439,185Z" transform="translate(3556.387 1370.967)" fill="#f6f5fa"/>
    <g id="Group_139" data-name="Group 139" transform="translate(2847.839 1262.867)">
      <path id="Path_19" data-name="Path 19" d="M831.674,385.377a12.786,12.786,0,0,0,11.164,6.552h158.686a12.788,12.788,0,0,0,10.889-19.493l-43.4-70.48a12.782,12.782,0,0,0-15.485-5.22,74.428,74.428,0,0,0-62.694,0,12.783,12.783,0,0,0-15.485,5.22l-43.4,70.48A12.787,12.787,0,0,0,831.674,385.377Zm146.957-19.024H962.715V340.506Zm-112.9,0,15.916-25.847v25.847Z" fill="#ffb900"/>
      <g id="Group_137" data-name="Group 137">
        <path id="Rectangle_11" data-name="Rectangle 11" d="M11.362,0h0A11.362,11.362,0,0,1,22.725,11.362V49.708a0,0,0,0,1,0,0H0a0,0,0,0,1,0,0V11.362A11.362,11.362,0,0,1,11.362,0Z" transform="translate(933.543 309.617) rotate(180)" fill="#e19b00"/>
        <path id="Rectangle_12" data-name="Rectangle 12" d="M11.362,0h0A11.362,11.362,0,0,1,22.725,11.362V49.708a0,0,0,0,1,0,0H0a0,0,0,0,1,0,0V11.362A11.362,11.362,0,0,1,11.362,0Z" transform="translate(933.543 304.824) rotate(-180)" fill="#ff9e9b"/>
        <path id="Path_20" data-name="Path 20" d="M933.543,282.945a11.362,11.362,0,1,1-22.724,0v-24.9h22.724Z" fill="#ff9e9b" opacity="0.5" style="mix-blend-mode: multiply;isolation: isolate"/>
      </g>
      <path id="Path_21" data-name="Path 21" d="M931.758,391.929h40.457v-.2A20.228,20.228,0,0,0,951.987,371.5h0a20.228,20.228,0,0,0-20.229,20.228Z" fill="#e19b00"/>
      <path id="Path_22" data-name="Path 22" d="M923.9,284.487h0a24.139,24.139,0,0,0,22.113-26.006l-3.063-37.851-48.119,3.893,3.062,37.851A24.139,24.139,0,0,0,923.9,284.487Z" fill="#ff9e9b"/>
      <ellipse id="Ellipse_6" data-name="Ellipse 6" cx="1.578" cy="1.786" rx="1.578" ry="1.786" transform="translate(923.651 249.056)" fill="#2b2384"/>
      <ellipse id="Ellipse_7" data-name="Ellipse 7" cx="1.578" cy="1.786" rx="1.578" ry="1.786" transform="translate(904.268 249.056)" fill="#2b2384"/>
      <path id="Path_23" data-name="Path 23" d="M929.215,264.391a6.87,6.87,0,0,1-11.47,5.952Z" fill="#fff"/>
      <path id="Path_24" data-name="Path 24" d="M927.182,391.929h36.932v-.187a18.466,18.466,0,0,0-18.466-18.466h0a18.467,18.467,0,0,0-18.466,18.466Z" fill="#ff9e9b"/>
      <path id="Rectangle_13" data-name="Rectangle 13" d="M0,0H24.55a0,0,0,0,1,0,0V.124A12.275,12.275,0,0,1,12.275,12.4h0A12.275,12.275,0,0,1,0,.124V0A0,0,0,0,1,0,0Z" transform="translate(946.639 391.929) rotate(180)" fill="#5449c5"/>
      <g id="Group_138" data-name="Group 138">
        <path id="Path_25" data-name="Path 25" d="M796.261,391.929H908.487a8.855,8.855,0,0,0,8.855-8.855H787.407A8.854,8.854,0,0,0,796.261,391.929Z" fill="#a9a3fa"/>
        <path id="Path_26" data-name="Path 26" d="M784.842,383.074H874.6a3.937,3.937,0,0,0,3.835-4.83l-13.646-58.6a3.937,3.937,0,0,0-3.835-3.044H771.2a3.937,3.937,0,0,0-3.835,4.83l13.646,58.605A3.937,3.937,0,0,0,784.842,383.074Z" fill="#5449c5"/>
        <path id="Path_27" data-name="Path 27" d="M781.746,383.074h89.761a3.937,3.937,0,0,0,3.835-4.83l-13.646-58.6a3.937,3.937,0,0,0-3.835-3.044H768.1a3.937,3.937,0,0,0-3.835,4.83l13.646,58.605A3.937,3.937,0,0,0,781.746,383.074Z" fill="#776cf2"/>
        <circle id="Ellipse_8" data-name="Ellipse 8" cx="10.415" cy="10.415" r="10.415" transform="translate(808.412 339.419)" fill="#a9a3fa"/>
      </g>
      <path id="Path_31" data-name="Path 31" d="M954.936,251.489a8.761,8.761,0,1,1-10.468-6.627A8.761,8.761,0,0,1,954.936,251.489Z" fill="#ff9e9b"/>
      <path id="Path_32" data-name="Path 32" d="M917.711,249.6s-1.494,9.6-5.106,12.937c3.464,1.566,4.2,0,4.2,0" fill="none" stroke="#ff9e9b" stroke-miterlimit="10" stroke-width="0.911" opacity="0.5" style="mix-blend-mode: multiply;isolation: isolate"/>
      <path id="Path_33" data-name="Path 33" d="M906.189,244.624a7,7,0,0,0-3.166.422,1.312,1.312,0,0,1-1.574-.464h0a1.165,1.165,0,0,1,.794-1.591,9.19,9.19,0,0,1,4.161-.554c.834.081,1.357.748,1.183,1.327h0A1.312,1.312,0,0,1,906.189,244.624Z" fill="#2b2384"/>
      <path id="Path_34" data-name="Path 34" d="M925.8,244.624a7,7,0,0,1,3.166.422,1.312,1.312,0,0,0,1.574-.464h0a1.164,1.164,0,0,0-.794-1.591,9.19,9.19,0,0,0-4.161-.554c-.834.081-1.357.748-1.183,1.327h0A1.312,1.312,0,0,0,925.8,244.624Z" fill="#2b2384"/>
      <g id="Group_140" data-name="Group 140">
        <circle id="Ellipse_5" data-name="Ellipse 5" cx="16.304" cy="16.304" r="16.304" transform="translate(925.151 238.749) rotate(-45)" fill="#5449c5"/>
        <path id="Path_28" data-name="Path 28" d="M921.55,199.358c-15.829-2.135-30.684,11.136-33.181,29.643l57.319,7.733C948.185,218.228,937.378,201.494,921.55,199.358Z" fill="#5449c5"/>
        <path id="Path_29" data-name="Path 29" d="M897.756,241.316a10.95,10.95,0,0,0,12.316-9.387L888.369,229A10.948,10.948,0,0,0,897.756,241.316Z" fill="#5449c5"/>
        <circle id="Ellipse_9" data-name="Ellipse 9" cx="8.745" cy="8.745" r="8.745" transform="translate(933.194 213.672) rotate(-24.805)" fill="#5449c5"/>
        <path id="Path_35" data-name="Path 35" d="M911.9,219.225a14.272,14.272,0,1,1-12.235-16.052A14.271,14.271,0,0,1,911.9,219.225Z" fill="#5449c5"/>
        <path id="Path_30" data-name="Path 30" d="M919.73,237.991c10.625,4.579,21.507,3.026,24.306-3.469L905.56,217.941C902.761,224.436,909.1,233.412,919.73,237.991Z" fill="#5449c5"/>
      </g>
      <path id="Path_36" data-name="Path 36" d="M950.49,252.488a4.2,4.2,0,1,1-5.023-3.179A4.2,4.2,0,0,1,950.49,252.488Z" fill="#2b2384"/>
      <path id="Path_37" data-name="Path 37" d="M936.142,270.5a11.768,11.768,0,0,0,9.329-6.77c1.512-3.324,1.069-6.909.816-10.428" fill="none" stroke="#fff" stroke-linecap="round" stroke-linejoin="round" stroke-width="1.713"/>
      <path id="Path_38" data-name="Path 38" d="M937.1,272.417l-6.467.5a1.809,1.809,0,0,1-1.944-1.662h0a1.809,1.809,0,0,1,1.663-1.944l6.466-.505Z" fill="#2b2384"/>
      <path id="Path_39" data-name="Path 39" d="M948.868,252.878a2.611,2.611,0,1,1-3.119-1.974A2.611,2.611,0,0,1,948.868,252.878Z" fill="none" stroke="#fff" stroke-linecap="round" stroke-linejoin="round" stroke-width="0.244"/>
    </g>
  </g>
</svg>
