<svg xmlns="http://www.w3.org/2000/svg" width="38.976" height="80.706" viewBox="0 0 38.976 80.706">
  <path id="Path_44" data-name="Path 44" d="M66.2,43.075A234.683,234.683,0,0,1,72.3,3.55c.089-.328-.256-.628-.594-.677l-2.071-.3a.727.727,0,0,0-.788.591c-.157.571-.4,1.427-.7,2.553-4.087.158-8.106.232-14.16.232-6.035,0-10.08-.074-14.155-.23-.308-1.125-.552-1.981-.709-2.554a.727.727,0,0,0-.788-.591l-2.069.3c-.338.049-.684.347-.594.677a234.775,234.775,0,0,1,6.074,39.528c-4.547,1.021-7.955,2.936-7.116,6.393,1.125,15.649.854,30.683.76,33.219a.644.644,0,0,0,.685.585h2.09a.722.722,0,0,0,.693-.7c.342-3.072,1.474-18.229,1.51-28.514h2.281c1.4,10.387,1.3,21.5,1.571,23.236a.46.46,0,0,0,.456.389h1.388c.257,0,.408-.212.46-.46.51-2.443,1.182-12.838.8-23.162H60.647c-.38,10.324.292,20.72.8,23.162.053.251.2.46.46.46H63.3a.46.46,0,0,0,.456-.389c.271-1.732.167-12.849,1.571-23.236H67.6c.037,10.284,1.17,25.442,1.51,28.514a.722.722,0,0,0,.693.7H71.9a.644.644,0,0,0,.685-.585c-.1-2.535-.365-17.57.76-33.219C74.184,46.009,70.764,44.092,66.2,43.075ZM61.3,42.319a70.287,70.287,0,0,0-7.315-.3,70.53,70.53,0,0,0-7.289.3q-.586-4.887-1.235-9.174c2.97.148,6,.148,8.522.148s5.582,0,8.553-.148Q61.891,37.441,61.3,42.319Zm2.889-19.033c-4.071.157-6.022.3-10.2.3s-6.11-.141-10.171-.3c-.695-3.733-1.379-6.969-2.01-9.709,4.089.158,6.123.3,12.181.3s8.13-.131,12.2-.292c-.626,2.742-1.309,5.979-2,9.7Z" transform="translate(-34.494 -2.571)" fill="#776cf2"/>
</svg>
