<svg xmlns="http://www.w3.org/2000/svg" width="61.166" height="76.02" viewBox="0 0 61.166 76.02">
  <g id="Group_290" data-name="Group 290" transform="translate(0 0)">
    <path id="Path_52" data-name="Path 52" d="M826.349-373.687H768.266a1.85,1.85,0,0,0-1.85,1.85V-298.9a1.233,1.233,0,0,0,1.234,1.234h58.7a1.233,1.233,0,0,0,1.234-1.234v-73.553a1.233,1.233,0,0,0-1.234-1.234Zm-24.724,25.7a1.727,1.727,0,0,1,1.727,1.727,1.727,1.727,0,0,1-1.727,1.727,1.727,1.727,0,0,1-1.727-1.727,1.727,1.727,0,0,1,1.727-1.727Zm-9.252,0a1.727,1.727,0,0,1,1.727,1.727,1.727,1.727,0,0,1-1.727,1.727,1.727,1.727,0,0,1-1.727-1.727h0A1.727,1.727,0,0,1,792.373-347.984ZM783.5-301.848h-3.577a.925.925,0,0,1-.925-.925.925.925,0,0,1,.925-.925H783.5a.925.925,0,0,1,.925.925A.925.925,0,0,1,783.5-301.848Zm30.582,0H810.5a.926.926,0,0,1-.925-.925.926.926,0,0,1,.925-.925h3.577a.926.926,0,0,1,.925.925A.926.926,0,0,1,814.078-301.848Zm-16.154-15.441v7.864a.617.617,0,0,0,.617.617h26.574a.926.926,0,0,1,.925.925.926.926,0,0,1-.925.925H798.541a.617.617,0,0,0-.617.617v6.207a.926.926,0,0,1-.925.925.925.925,0,0,1-.925-.925v-6.207a.617.617,0,0,0-.617-.617H768.883a.925.925,0,0,1-.925-.925.925.925,0,0,1,.925-.925h26.574a.617.617,0,0,0,.617-.617v-7.864a.617.617,0,0,0-.617-.617H768.883a.925.925,0,0,1-.925-.925.925.925,0,0,1,.925-.925h26.574a.617.617,0,0,0,.617-.617V-371.22a.925.925,0,0,1,.925-.925.926.926,0,0,1,.925.925v50.847a.617.617,0,0,0,.617.617h26.574a.926.926,0,0,1,.925.925.926.926,0,0,1-.925.925H798.541A.617.617,0,0,0,797.924-317.289ZM815-313.357a.926.926,0,0,1-.925.925H810.5a.926.926,0,0,1-.925-.925.926.926,0,0,1,.925-.925h3.577A.926.926,0,0,1,815-313.357Zm-36.008,0a.925.925,0,0,1,.925-.925H783.5a.926.926,0,0,1,.925.925.925.925,0,0,1-.925.925H779.92A.925.925,0,0,1,778.995-313.357Z" transform="translate(-766.416 373.687)" fill="#776cf2"/>
  </g>
</svg>
