<svg xmlns="http://www.w3.org/2000/svg" width="73.665" height="70.55" viewBox="0 0 73.665 70.55">
  <g id="Group_292" data-name="Group 292" transform="translate(0)">
    <rect id="Rectangle_31" data-name="Rectangle 31" width="17.319" height="8.732" rx="1.5" transform="translate(52.623 50.67)" fill="#776cf2"/>
    <path id="Path_55" data-name="Path 55" d="M859.472,54.5H843.907a.877.877,0,0,0-.877.877V62.94a.877.877,0,0,0,.877.877h15.565a.877.877,0,0,0,.877-.877V55.377A.877.877,0,0,0,859.472,54.5Zm-.877,7.563H844.784V60.053H858.6Z" transform="translate(-790.407 -26.404)" fill="#776cf2"/>
    <path id="Path_56" data-name="Path 56" d="M825.864,16.63a2.736,2.736,0,0,0-4.676,1.935v.947H807.376v-.947a2.738,2.738,0,0,0-5.477,0h0v3.688h-30.29c-1.562-2.506-7.224-6.714-13.13-6.615V9.212a2.74,2.74,0,0,0-5.48-.08c0,.027,0,.053,0,.08V74.2a2.74,2.74,0,0,0,5.48.08c0-.027,0-.053,0-.08V72.228H801.9V74.2a2.738,2.738,0,0,0,5.477,0V72.228h13.812V74.2a2.738,2.738,0,0,0,5.477,0V18.565A2.753,2.753,0,0,0,825.864,16.63Zm-67.385,7.439,23.161-.033V32.7H758.479ZM781.5,64.852H758.479v-8.7H781.5ZM801.9,54.4h-30.29c-1.562-2.506-7.224-6.712-13.13-6.611V40.081H801.9Zm23.012,19.8a.985.985,0,0,1-1.97,0h0V68.686a.877.877,0,0,0-.877-.877H806.5a.877.877,0,0,0-.877.877V74.2a.985.985,0,1,1-1.97,0h0V65.713a17.067,17.067,0,0,0,.033-2.344c-.008-.131-.023-.262-.033-.393V18.565a.985.985,0,0,1,1.97,0v1.824a.877.877,0,0,0,.877.877h15.565a.877.877,0,0,0,.877-.877V18.565a.985.985,0,0,1,1.97,0Z" transform="translate(-752.999 -6.431)" fill="#776cf2"/>
    <rect id="Rectangle_32" data-name="Rectangle 32" width="17.319" height="9.311" rx="1.5" transform="translate(52.623 16.809)" fill="#776cf2"/>
    <path id="Path_57" data-name="Path 57" d="M859.472,73.81H843.907a.877.877,0,0,0-.877.877V82.25a.877.877,0,0,0,.877.877h15.565a.877.877,0,0,0,.877-.877V74.687A.877.877,0,0,0,859.472,73.81Zm-.877,7.563H844.784v-5.81H858.6Z" transform="translate(-790.407 -34.427)" fill="#776cf2"/>
  </g>
</svg>
