<svg id="Group_297" data-name="Group 297" xmlns="http://www.w3.org/2000/svg" width="59.655" height="75.925" viewBox="0 0 59.655 75.925">
  <path id="Path_65" data-name="Path 65" d="M39.828,63.655A29.828,29.828,0,1,0,10,33.828,29.828,29.828,0,0,0,39.828,63.655ZM18.556,33.578a3.966,3.966,0,0,1,5.928-1.2,13.314,13.314,0,0,0,8.4,2.728,1.765,1.765,0,0,0,1.738-1.677l.011-.222a1.818,1.818,0,0,0-.813-1.578A12.194,12.194,0,1,1,51.066,15.065a4.033,4.033,0,0,1-1.946,5.97,13.469,13.469,0,0,0-6.623,6.2,1.725,1.725,0,0,0,.476,2.2l.02.015a1.755,1.755,0,0,0,1.834.212,12.188,12.188,0,1,1,5.978,23,4.034,4.034,0,0,1-4.059-4.581,13.457,13.457,0,0,0-2.11-9.03,1.572,1.572,0,0,0-2.078-.553c-.081.046-.164.089-.248.132a1.628,1.628,0,0,0-.873,1.4,12.189,12.189,0,1,1-22.88-6.45Z" transform="translate(-10 -4)" fill="#776cf2"/>
  <path id="Path_66" data-name="Path 66" d="M45.214,58.135a6.487,6.487,0,0,1-6.36-5.214l-.294-1.472A1.8,1.8,0,0,0,36.793,50h-2.47a1.8,1.8,0,0,0-1.767,1.448l-.294,1.472a6.487,6.487,0,0,1-6.36,5.214h-1.19a2.712,2.712,0,0,0,0,5.423H46.4a2.712,2.712,0,0,0,0-5.423Z" transform="translate(-5.73 12.367)" fill="#776cf2"/>
  <circle id="Ellipse_18" data-name="Ellipse 18" cx="2.72" cy="2.72" r="2.72" transform="translate(27.205 26.956)" fill="#776cf2"/>
</svg>
