<svg xmlns="http://www.w3.org/2000/svg" width="37.636" height="75.651" viewBox="0 0 37.636 75.651">
  <g id="Group_296" data-name="Group 296" transform="translate(0 0)">
    <path id="Path_63" data-name="Path 63" d="M-164.9-399.122h27.586a5.025,5.025,0,0,0,5.025-5.025v-34.7A2.149,2.149,0,0,0-134.443-441h-33.338a2.149,2.149,0,0,0-2.149,2.149v34.7A5.025,5.025,0,0,0-164.9-399.122Zm.189-29.72a2.7,2.7,0,0,1,2.7-2.7h1.658a1.044,1.044,0,0,1,1.044,1.044v.613a1.044,1.044,0,0,1-1.044,1.044h-.613a1.044,1.044,0,0,0-1.044,1.044v3.315a1.044,1.044,0,0,0,1.044,1.044h.613a1.044,1.044,0,0,1,1.044,1.044v.613a1.044,1.044,0,0,1-1.044,1.044h-1.658a2.7,2.7,0,0,1-2.7-2.7Z" transform="translate(169.93 474.773)" fill="#776cf2"/>
    <path id="Path_64" data-name="Path 64" d="M-167.781-434.929h33.338a2.149,2.149,0,0,0,2.149-2.149v-23.9A5.025,5.025,0,0,0-137.319-466H-164.9a5.025,5.025,0,0,0-5.025,5.025v23.9A2.149,2.149,0,0,0-167.781-434.929Zm3.065-17.562a2.7,2.7,0,0,1,2.7-2.7h1.658a1.044,1.044,0,0,1,1.044,1.044v.613a1.044,1.044,0,0,1-1.044,1.044h-.613a1.044,1.044,0,0,0-1.044,1.044v3.315a1.044,1.044,0,0,0,1.044,1.044h.613a1.044,1.044,0,0,1,1.044,1.044v.613a1.044,1.044,0,0,1-1.044,1.044h-1.658a2.7,2.7,0,0,1-2.7-2.7Z" transform="translate(169.93 466)" fill="#776cf2"/>
  </g>
</svg>
