<svg xmlns="http://www.w3.org/2000/svg" width="37.625" height="83.248" viewBox="0 0 37.625 83.248">
  <path id="Path_45" data-name="Path 45" d="M73.428,26.436,70.15,2.682A1.889,1.889,0,0,0,68.287,1.06H40.981a1.889,1.889,0,0,0-1.863,1.622L35.841,26.436a1.875,1.875,0,0,0,1.593,2.119,1.948,1.948,0,0,0,.2.017c1.9.067,5.914.237,10.6.274,3.2.025,9.614.025,12.818,0,4.681-.037,8.7-.207,10.6-.274a1.875,1.875,0,0,0,1.807-1.94A1.914,1.914,0,0,0,73.428,26.436Zm-13,4.413H48.838a.663.663,0,0,0-.668.642c-.592,18.181-5.522,49.338-5.522,49.338a1.336,1.336,0,0,0,1.109,1.529c.039.006.079.011.12.013h.641A1.288,1.288,0,0,0,45.74,81.2s5.628-32.64,6.329-45.619l.547,47.4a1.335,1.335,0,0,0,1.335,1.322h1.362a1.34,1.34,0,0,0,1.335-1.322l.541-47.261C57.89,48.7,63.525,81.2,63.525,81.2a1.288,1.288,0,0,0,1.222,1.168h.641a1.335,1.335,0,0,0,1.242-1.423c0-.04-.007-.08-.013-.12,0,0-4.93-31.155-5.522-49.338A.663.663,0,0,0,60.431,30.849Z" transform="translate(-35.822 -1.06)" fill="#776cf2"/>
</svg>
