<svg id="Group_293" data-name="Group 293" xmlns="http://www.w3.org/2000/svg" width="79.333" height="56.666" viewBox="0 0 79.333 56.666">
  <path id="Path_58" data-name="Path 58" d="M8.676,76.666h69.98a4.677,4.677,0,0,0,4.676-4.676V24.676A4.677,4.677,0,0,0,78.656,20H8.676A4.677,4.677,0,0,0,4,24.676V71.99A4.677,4.677,0,0,0,8.676,76.666ZM74.833,28.5A2.833,2.833,0,1,1,72,31.333,2.833,2.833,0,0,1,74.833,28.5Zm0,8.5A2.833,2.833,0,1,1,72,39.833,2.833,2.833,0,0,1,74.833,37Zm0,8.5A2.833,2.833,0,1,1,72,48.333,2.833,2.833,0,0,1,74.833,45.5ZM72,57.452a.62.62,0,0,1,.619-.619h4.428a.62.62,0,0,1,.619.619v1.6a.62.62,0,0,1-.619.619H72.619A.62.62,0,0,1,72,59.047Zm0,5.667a.62.62,0,0,1,.619-.619h4.428a.62.62,0,0,1,.619.619v1.6a.62.62,0,0,1-.619.619H72.619A.62.62,0,0,1,72,64.714ZM12.972,30.333A1.833,1.833,0,0,1,14.8,28.5H64.5a1.833,1.833,0,0,1,1.833,1.833v36A1.833,1.833,0,0,1,64.5,68.166H14.8a1.833,1.833,0,0,1-1.833-1.833Z" transform="translate(-4 -20)" fill="#776cf2"/>
  <path id="Path_59" data-name="Path 59" d="M20,58.333h2.515a2.833,2.833,0,1,0,0-5.667H20a.378.378,0,0,1-.378-.377V36.043A.378.378,0,0,1,20,35.667h2.515a2.833,2.833,0,1,0,0-5.667H20a6.051,6.051,0,0,0-6.045,6.043V52.29A6.051,6.051,0,0,0,20,58.333Z" transform="translate(0.149 -15.833)" fill="#776cf2"/>
</svg>
