<svg xmlns="http://www.w3.org/2000/svg" width="79.844" height="34.868" viewBox="0 0 79.844 34.868">
  <g id="Group_288" data-name="Group 288" transform="translate(0)">
    <path id="Path_47" data-name="Path 47" d="M-109.733,100.816v3.733a.651.651,0,0,1-.651.651h-60.325a.651.651,0,0,1-.651-.651V100.81a.646.646,0,0,1,.564-.647c14.216-1.757,46.259-1.751,60.5.007A.645.645,0,0,1-109.733,100.816Z" transform="translate(180.469 -80.735)" fill="#776cf2"/>
    <path id="Path_48" data-name="Path 48" d="M-143.13,72.206c-.273,4.338-.206,10.612-.109,14.278a.639.639,0,0,1-.622.656h-.018a273.4,273.4,0,0,0-28.314,1.317.651.651,0,0,1-.724-.568.6.6,0,0,1,0-.077V86.234a2.834,2.834,0,0,0-2.206-2.655,5.659,5.659,0,0,0-.677-.2,91.155,91.155,0,0,1,.312-9.922,1.526,1.526,0,0,1,1.08-1.275c4.625-1.3,24.555-1.533,30.734-.658A.637.637,0,0,1-143.13,72.206Z" transform="translate(182.029 -71.008)" fill="#776cf2"/>
    <path id="Path_49" data-name="Path 49" d="M-90.576,83.551a1.249,1.249,0,0,0-.221.065A2.822,2.822,0,0,0-93,86.271v1.541a.651.651,0,0,1-.652.649.588.588,0,0,1-.075,0,276.172,276.172,0,0,0-28.688-1.287.651.651,0,0,1-.643-.56c-.526-3.917-.395-12.764-.364-14.5a.411.411,0,0,1,.316-.39,4.97,4.97,0,0,1,.535-.1c5.749-.781,26.35-.722,31.061.605a1.527,1.527,0,0,1,1.08,1.275A67.041,67.041,0,0,1-90.576,83.551Z" transform="translate(163.732 -71.045)" fill="#776cf2"/>
    <path id="Path_50" data-name="Path 50" d="M-176.251,104.968a1.952,1.952,0,0,1-1.952-1.952V93.778c0-.351-.351-.618-.9-.813-1.919-.683-6.252-.41-6.252.813v15.087a4.554,4.554,0,0,0,4.554,4.554h70.735a4.569,4.569,0,0,0,4.554-4.554V93.778c0-1.223-4.333-1.5-6.252-.813-.553.2-.9.462-.9.813v9.239a1.952,1.952,0,0,1-1.952,1.952Z" transform="translate(185.36 -78.551)" fill="#776cf2"/>
  </g>
</svg>
