<svg id="Group_294" data-name="Group 294" xmlns="http://www.w3.org/2000/svg" width="53.979" height="74.912" viewBox="0 0 53.979 74.912">
  <path id="Path_60" data-name="Path 60" d="M65.979,69.638V8.53A4.53,4.53,0,0,0,61.449,4H16.53A4.53,4.53,0,0,0,12,8.53V69.638a4.53,4.53,0,0,0,4.53,4.53H61.449A4.53,4.53,0,0,0,65.979,69.638ZM33.758,18.84a5.4,5.4,0,1,1,8.811,5.367,2.5,2.5,0,0,0-.88,1.865A2.218,2.218,0,0,1,39.47,28.29h-.962a2.218,2.218,0,0,1-2.217-2.219h0a2.468,2.468,0,0,0-.868-1.851A5.363,5.363,0,0,1,33.758,18.84ZM18.747,68.775A1.349,1.349,0,1,1,20.1,67.425,1.35,1.35,0,0,1,18.747,68.775Zm0-56.621A1.349,1.349,0,1,1,20.1,10.8,1.35,1.35,0,0,1,18.747,12.154ZM38.989,63.377A16.194,16.194,0,1,1,55.183,47.183,16.194,16.194,0,0,1,38.989,63.377Zm20.242,5.4a1.349,1.349,0,1,1,1.349-1.349A1.35,1.35,0,0,1,59.231,68.775Zm0-56.621A1.349,1.349,0,1,1,60.581,10.8,1.35,1.35,0,0,1,59.231,12.154Z" transform="translate(-12 -4)" fill="#776cf2"/>
  <circle id="Ellipse_16" data-name="Ellipse 16" cx="5.5" cy="5.5" r="5.5" transform="translate(21.293 37.912)" fill="#776cf2"/>
  <rect id="Rectangle_33" data-name="Rectangle 33" width="6" height="2" rx="0.257" transform="translate(5.293 72.912)" fill="#776cf2"/>
  <rect id="Rectangle_34" data-name="Rectangle 34" width="6" height="2" rx="0.257" transform="translate(43.293 72.912)" fill="#776cf2"/>
  <ellipse id="Ellipse_17" data-name="Ellipse 17" cx="1" cy="2" rx="1" ry="2" transform="translate(26.293 13.912)" fill="#776cf2"/>
</svg>
