<svg id="Group_289" data-name="Group 289" xmlns="http://www.w3.org/2000/svg" width="76.304" height="51.01" viewBox="0 0 76.304 51.01">
  <path id="Path_51" data-name="Path 51" d="M77.288,45.014c0-1.193-.9-2.329-11.753-3.095-6.545-.463-15.674-.707-26.4-.707s-19.854.242-26.4.707C1.883,42.685.984,43.82.984,45.014c0,.763.007,2.137,9.34,3.47a.741.741,0,0,0-.026.136c0,1.192,3.33,2.479,8.686,3.458-1.664,7.039-6.618,27.985-8.284,34.8-.137.562.484,1.076,1.31,1.076H13.2a1.261,1.261,0,0,0,1.294-.716c3.455-8.317,11.268-34.217,11.268-34.217,2.824.292,5.921.5,9.2.6l1.889,37.592a1.277,1.277,0,0,0,1.393,1h1.779a1.281,1.281,0,0,0,1.4-1l1.889-37.592c3.277-.1,6.375-.309,9.2-.6,0,0,7.812,25.9,11.267,34.217a1.261,1.261,0,0,0,1.294.716h1.194c.822,0,1.447-.513,1.31-1.076-1.666-6.819-6.62-27.765-8.284-34.8,5.356-.979,8.686-2.266,8.686-3.458a.742.742,0,0,0-.026-.136C77.279,47.15,77.288,45.777,77.288,45.014ZM39.136,48.385c-18.29,0-32.567-1.844-35.811-3.272a.056.056,0,0,1,.005-.1c2.5-.849,12.034-1.98,35.805-1.98s33.305,1.13,35.805,1.982a.056.056,0,0,1,.005.1C71.7,46.541,57.426,48.385,39.136,48.385Z" transform="translate(-0.984 -41.212)" fill="#776cf2"/>
</svg>
