<svg id="Group_295" data-name="Group 295" xmlns="http://www.w3.org/2000/svg" width="70.64" height="58.025" viewBox="0 0 70.64 58.025">
  <path id="Path_61" data-name="Path 61" d="M6.8,59.411H71.841a2.8,2.8,0,0,0,2.8-2.8V16.8a2.8,2.8,0,0,0-2.8-2.8H6.8A2.8,2.8,0,0,0,4,16.8V56.612A2.8,2.8,0,0,0,6.8,59.411Zm27.449-27.2a1.338,1.338,0,0,1,2.027-1.145l7.47,4.5a1.337,1.337,0,0,1,0,2.291l-7.47,4.5A1.338,1.338,0,0,1,34.248,41.2Z" transform="translate(-4 -14)" fill="#776cf2"/>
  <path id="Path_62" data-name="Path 62" d="M36.015,52H32.168a.6.6,0,0,0-.6.6v.443a4,4,0,0,1-4,4h-.921A2.644,2.644,0,0,0,24,59.69v.941a1.462,1.462,0,0,0,1.461,1.461H42.722a1.462,1.462,0,0,0,1.461-1.461V59.69a2.645,2.645,0,0,0-2.644-2.644h-.921a4,4,0,0,1-4-4V52.6A.6.6,0,0,0,36.015,52Z" transform="translate(1.228 -4.066)" fill="#776cf2"/>
</svg>
